<svg xmlns="http://www.w3.org/2000/svg" xmlns:xlink="http://www.w3.org/1999/xlink" width="500" zoomAndPan="magnify" viewBox="0 0 375 374.999991" height="500" preserveAspectRatio="xMidYMid meet" version="1.0"><defs><g/><clipPath id="e6fdbcf349"><path d="M 66 2.730469 L 278 2.730469 L 278 125 L 66 125 Z M 66 2.730469 " clip-rule="nonzero"/></clipPath><clipPath id="29f6a2f218"><path d="M 35 159 L 247 159 L 247 280.382812 L 35 280.382812 Z M 35 159 " clip-rule="nonzero"/></clipPath><clipPath id="b6508c7106"><path d="M 17.144531 20 L 140 20 L 140 232 L 17.144531 232 Z M 17.144531 20 " clip-rule="nonzero"/></clipPath><clipPath id="ce8b112027"><path d="M 62 0.617188 L 273 0.617188 L 273 123 L 62 123 Z M 62 0.617188 " clip-rule="nonzero"/></clipPath><clipPath id="d1ce136135"><path d="M 31 157 L 242 157 L 242 278.265625 L 31 278.265625 Z M 31 157 " clip-rule="nonzero"/></clipPath><clipPath id="d722647176"><path d="M 12.554688 18 L 135 18 L 135 230 L 12.554688 230 Z M 12.554688 18 " clip-rule="nonzero"/></clipPath><clipPath id="ff61b84973"><path d="M 170 49 L 291.597656 49 L 291.597656 261 L 170 261 Z M 170 49 " clip-rule="nonzero"/></clipPath><clipPath id="9096a3c0ee"><path d="M 75 338 L 323 338 L 323 368.71875 L 75 368.71875 Z M 75 338 " clip-rule="nonzero"/></clipPath><clipPath id="15d4e392af"><path d="M 0.0390625 7 L 20 7 L 20 24 L 0.0390625 24 Z M 0.0390625 7 " clip-rule="nonzero"/></clipPath><clipPath id="861442cd0d"><rect x="0" width="248" y="0" height="31"/></clipPath><clipPath id="9ebc936beb"><rect x="0" width="326" y="0" height="369"/></clipPath></defs><rect x="-37.5" width="450" fill="#ffffff" y="-37.499999" height="449.999989" fill-opacity="1"/><rect x="-37.5" width="450" fill="#ffffff" y="-37.499999" height="449.999989" fill-opacity="1"/><g transform="matrix(1, 0, 0, 1, 26, 4)"><g clip-path="url(#9ebc936beb)"><g clip-path="url(#e6fdbcf349)"><path fill="#b4b4b4" d="M 126.519531 101.003906 L 145.082031 119.417969 C 151.453125 125.707031 161.730469 125.707031 168.097656 119.417969 L 183.367188 104.304688 L 186.585938 100.929688 L 275.65625 11.785156 C 279.03125 8.410156 276.652344 2.730469 271.894531 2.730469 L 240.597656 2.730469 C 230.546875 2.730469 220.878906 6.722656 213.746094 13.855469 L 156.589844 71.007812 L 137.71875 52.136719 C 130.738281 45.15625 121.300781 41.242188 111.40625 41.242188 L 66.910156 41.242188 L 126.671875 101.003906 Z M 126.519531 101.003906 " fill-opacity="1" fill-rule="nonzero"/></g><g clip-path="url(#29f6a2f218)"><path fill="#b4b4b4" d="M 186.585938 182.402344 L 168.023438 163.988281 C 161.65625 157.621094 151.375 157.621094 145.007812 163.988281 L 129.742188 179.101562 L 126.519531 182.480469 L 37.449219 271.699219 C 34.074219 275.074219 36.453125 280.753906 41.210938 280.753906 L 72.894531 280.753906 C 82.789062 280.753906 92.226562 276.839844 99.207031 269.859375 L 156.589844 212.476562 L 175.234375 231.117188 C 182.367188 238.25 192.035156 242.242188 202.160156 242.242188 L 246.273438 242.242188 L 186.511719 182.480469 Z M 186.585938 182.402344 " fill-opacity="1" fill-rule="nonzero"/></g><g clip-path="url(#b6508c7106)"><path fill="#545454" d="M 85.859375 141.742188 L 67.140625 160.460938 C 60.082031 167.519531 56.09375 177.109375 56.09375 187.082031 L 56.09375 231.421875 L 115.855469 171.660156 L 115.933594 171.738281 L 134.421875 153.171875 C 140.789062 146.804688 140.710938 136.449219 134.34375 130.082031 L 26.558594 22.523438 C 23.257812 19.226562 17.582031 21.527344 17.582031 26.285156 L 17.582031 57.816406 C 17.582031 67.941406 21.492188 77.453125 28.707031 84.589844 Z M 85.859375 141.742188 " fill-opacity="1" fill-rule="nonzero"/></g><path fill="#545454" d="M 284.707031 199.050781 L 227.628906 141.742188 L 246.578125 122.714844 C 253.40625 115.8125 257.320312 106.53125 257.320312 96.785156 L 257.320312 52.0625 L 197.863281 111.824219 L 197.789062 111.746094 L 179.605469 130.15625 C 173.316406 136.527344 173.316406 146.652344 179.53125 153.097656 L 197.863281 171.890625 L 197.941406 171.816406 L 286.933594 261.191406 C 290.15625 264.488281 295.753906 262.1875 295.753906 257.507812 L 295.753906 225.515625 C 295.601562 215.542969 291.6875 206.105469 284.707031 199.050781 Z M 284.707031 199.050781 " fill-opacity="1" fill-rule="nonzero"/><g clip-path="url(#ce8b112027)"><path fill="#000000" d="M 121.925781 98.890625 L 140.492188 117.300781 C 146.859375 123.589844 157.140625 123.589844 163.507812 117.300781 L 178.773438 102.1875 L 181.996094 98.8125 L 271.0625 9.667969 C 274.4375 6.292969 272.0625 0.617188 267.304688 0.617188 L 236.003906 0.617188 C 225.953125 0.617188 216.289062 4.605469 209.152344 11.738281 L 152 68.894531 L 133.128906 50.019531 C 126.148438 43.039062 116.710938 39.128906 106.8125 39.128906 L 62.320312 39.128906 L 122.082031 98.890625 Z M 121.925781 98.890625 " fill-opacity="1" fill-rule="nonzero"/></g><g clip-path="url(#d1ce136135)"><path fill="#000000" d="M 181.996094 180.285156 L 163.429688 161.875 C 157.0625 155.503906 146.785156 155.503906 140.414062 161.875 L 125.148438 176.984375 L 121.925781 180.363281 L 32.859375 269.582031 C 29.484375 272.957031 31.863281 278.636719 36.617188 278.636719 L 68.300781 278.636719 C 78.199219 278.636719 87.636719 274.722656 94.617188 267.742188 L 152 210.359375 L 170.640625 229 C 177.777344 236.132812 187.441406 240.125 197.570312 240.125 L 241.679688 240.125 L 181.917969 180.363281 Z M 181.996094 180.285156 " fill-opacity="1" fill-rule="nonzero"/></g><g clip-path="url(#d722647176)"><path fill="#000000" d="M 81.269531 139.625 L 62.550781 158.34375 C 55.492188 165.402344 51.5 174.992188 51.5 184.964844 L 51.5 229.308594 L 111.265625 169.542969 L 111.339844 169.621094 L 129.828125 151.054688 C 136.195312 144.6875 136.121094 134.332031 129.753906 127.964844 L 21.964844 20.410156 C 18.667969 17.109375 12.988281 19.410156 12.988281 24.167969 L 12.988281 55.699219 C 12.988281 65.824219 16.902344 75.335938 24.113281 82.472656 Z M 81.269531 139.625 " fill-opacity="1" fill-rule="nonzero"/></g><g clip-path="url(#ff61b84973)"><path fill="#000000" d="M 280.117188 196.933594 L 223.039062 139.625 L 241.988281 120.601562 C 248.816406 113.695312 252.730469 104.414062 252.730469 94.667969 L 252.730469 49.945312 L 193.273438 109.707031 L 193.195312 109.628906 L 175.015625 128.042969 C 168.722656 134.410156 168.722656 144.535156 174.9375 150.980469 L 193.273438 169.773438 L 193.351562 169.699219 L 282.339844 259.074219 C 285.5625 262.371094 291.164062 260.070312 291.164062 255.390625 L 291.164062 223.398438 C 291.011719 213.425781 287.097656 203.992188 280.117188 196.933594 Z M 280.117188 196.933594 " fill-opacity="1" fill-rule="nonzero"/></g><g fill="#545454" fill-opacity="0.451"><g transform="translate(2.829181, 336.576548)"><g><path d="M 27.921875 -9.515625 C 29.523438 -9.515625 31.082031 -9.753906 32.59375 -10.234375 C 34.113281 -10.722656 35.226562 -11.191406 35.9375 -11.640625 L 37 -12.375 L 41.46875 -3.421875 C 41.320312 -3.304688 41.117188 -3.15625 40.859375 -2.96875 C 40.597656 -2.78125 39.988281 -2.429688 39.03125 -1.921875 C 38.082031 -1.421875 37.066406 -0.984375 35.984375 -0.609375 C 34.898438 -0.242188 33.484375 0.0859375 31.734375 0.390625 C 29.984375 0.691406 28.175781 0.84375 26.3125 0.84375 C 22.019531 0.84375 17.953125 -0.207031 14.109375 -2.3125 C 10.265625 -4.425781 7.164062 -7.328125 4.8125 -11.015625 C 2.457031 -14.710938 1.28125 -18.707031 1.28125 -23 C 1.28125 -26.25 1.96875 -29.363281 3.34375 -32.34375 C 4.726562 -35.332031 6.566406 -37.890625 8.859375 -40.015625 C 11.160156 -42.140625 13.835938 -43.835938 16.890625 -45.109375 C 19.953125 -46.378906 23.09375 -47.015625 26.3125 -47.015625 C 29.289062 -47.015625 32.039062 -46.660156 34.5625 -45.953125 C 37.082031 -45.242188 38.863281 -44.535156 39.90625 -43.828125 L 41.46875 -42.765625 L 37 -33.8125 C 36.738281 -34.03125 36.34375 -34.296875 35.8125 -34.609375 C 35.289062 -34.929688 34.242188 -35.351562 32.671875 -35.875 C 31.109375 -36.394531 29.523438 -36.65625 27.921875 -36.65625 C 25.390625 -36.65625 23.113281 -36.242188 21.09375 -35.421875 C 19.082031 -34.609375 17.488281 -33.53125 16.3125 -32.1875 C 15.132812 -30.84375 14.238281 -29.394531 13.625 -27.84375 C 13.007812 -26.289062 12.703125 -24.710938 12.703125 -23.109375 C 12.703125 -19.609375 14.015625 -16.46875 16.640625 -13.6875 C 19.273438 -10.90625 23.035156 -9.515625 27.921875 -9.515625 Z M 27.921875 -9.515625 "/></g></g></g><g fill="#545454" fill-opacity="0.451"><g transform="translate(44.968238, 336.576548)"><g><path d="M 1.28125 -23.109375 C 1.28125 -29.796875 3.554688 -35.453125 8.109375 -40.078125 C 12.660156 -44.703125 18.144531 -47.015625 24.5625 -47.015625 C 31.019531 -47.015625 36.503906 -44.707031 41.015625 -40.09375 C 45.535156 -35.488281 47.796875 -29.828125 47.796875 -23.109375 C 47.796875 -16.359375 45.578125 -10.675781 41.140625 -6.0625 C 36.703125 -1.457031 31.175781 0.84375 24.5625 0.84375 C 17.8125 0.84375 12.242188 -1.441406 7.859375 -6.015625 C 3.472656 -10.585938 1.28125 -16.285156 1.28125 -23.109375 Z M 12.65625 -23.109375 C 12.65625 -20.691406 13.023438 -18.484375 13.765625 -16.484375 C 14.515625 -14.484375 15.820312 -12.789062 17.6875 -11.40625 C 19.550781 -10.03125 21.84375 -9.34375 24.5625 -9.34375 C 28.488281 -9.34375 31.445312 -10.6875 33.4375 -13.375 C 35.4375 -16.0625 36.4375 -19.304688 36.4375 -23.109375 C 36.4375 -26.878906 35.414062 -30.117188 33.375 -32.828125 C 31.34375 -35.535156 28.40625 -36.890625 24.5625 -36.890625 C 20.757812 -36.890625 17.820312 -35.535156 15.75 -32.828125 C 13.6875 -30.117188 12.65625 -26.878906 12.65625 -23.109375 Z M 12.65625 -23.109375 "/></g></g></g><g fill="#545454" fill-opacity="0.451"><g transform="translate(94.046516, 336.576548)"><g><path d="M 3.359375 -46.171875 L 16.734375 -46.171875 C 23.148438 -46.171875 28.632812 -43.976562 33.1875 -39.59375 C 37.738281 -35.207031 40.015625 -29.710938 40.015625 -23.109375 C 40.015625 -16.472656 37.75 -10.960938 33.21875 -6.578125 C 28.6875 -2.191406 23.191406 0 16.734375 0 L 3.359375 0 Z M 13.875 -9.40625 L 15.5 -9.40625 C 19.34375 -9.40625 22.484375 -10.703125 24.921875 -13.296875 C 27.367188 -15.890625 28.613281 -19.144531 28.65625 -23.0625 C 28.65625 -26.976562 27.429688 -30.238281 24.984375 -32.84375 C 22.546875 -35.457031 19.382812 -36.765625 15.5 -36.765625 L 13.875 -36.765625 Z M 13.875 -9.40625 "/></g></g></g><g fill="#545454" fill-opacity="0.451"><g transform="translate(135.346154, 336.576548)"><g><path d="M 13.875 -46.171875 L 13.875 0 L 3.359375 0 L 3.359375 -46.171875 Z M 13.875 -46.171875 "/></g></g></g><g fill="#545454" fill-opacity="0.451"><g transform="translate(152.58232, 336.576548)"><g><path d="M 46.5625 0 L 32.96875 0 L 22.046875 -15.734375 L 11.140625 0 L -1.90625 0 L 15.5625 -24.84375 L 1 -46.171875 L 13.546875 -46.171875 L 22.046875 -33.578125 L 30.5625 -46.171875 L 43.65625 -46.171875 L 28.546875 -24.84375 Z M 46.5625 0 "/></g></g></g><g fill="#545454" fill-opacity="0.451"><g transform="translate(197.239639, 336.576548)"><g><path d="M 3.359375 -46.171875 L 20.203125 -46.171875 C 24.898438 -46.171875 28.703125 -44.957031 31.609375 -42.53125 C 34.523438 -40.101562 35.984375 -36.578125 35.984375 -31.953125 C 35.984375 -27.328125 34.507812 -23.695312 31.5625 -21.0625 C 28.613281 -18.4375 24.828125 -17.125 20.203125 -17.125 L 13.875 -17.125 L 13.875 0 L 3.359375 0 Z M 13.875 -25.515625 L 16.84375 -25.515625 C 19.195312 -25.515625 21.128906 -25.988281 22.640625 -26.9375 C 24.148438 -27.894531 24.90625 -29.457031 24.90625 -31.625 C 24.90625 -33.820312 24.148438 -35.394531 22.640625 -36.34375 C 21.128906 -37.300781 19.195312 -37.78125 16.84375 -37.78125 L 13.875 -37.78125 Z M 13.875 -25.515625 "/></g></g></g><g fill="#545454" fill-opacity="0.451"><g transform="translate(234.51004, 336.576548)"><g><path d="M 3.359375 -46.171875 L 19.875 -46.171875 C 24.3125 -46.171875 27.925781 -44.984375 30.71875 -42.609375 C 33.519531 -40.242188 34.921875 -36.863281 34.921875 -32.46875 C 34.921875 -29.070312 34.070312 -26.222656 32.375 -23.921875 C 30.675781 -21.628906 28.375 -20.015625 25.46875 -19.078125 L 41.359375 0 L 27.984375 0 L 13.875 -18.25 L 13.875 0 L 3.359375 0 Z M 13.875 -25.6875 L 15.109375 -25.6875 C 16.078125 -25.6875 16.894531 -25.703125 17.5625 -25.734375 C 18.238281 -25.773438 19.003906 -25.90625 19.859375 -26.125 C 20.722656 -26.351562 21.414062 -26.671875 21.9375 -27.078125 C 22.457031 -27.492188 22.90625 -28.09375 23.28125 -28.875 C 23.65625 -29.664062 23.84375 -30.617188 23.84375 -31.734375 C 23.84375 -32.847656 23.65625 -33.796875 23.28125 -34.578125 C 22.90625 -35.367188 22.457031 -35.96875 21.9375 -36.375 C 21.414062 -36.789062 20.722656 -37.109375 19.859375 -37.328125 C 19.003906 -37.554688 18.238281 -37.6875 17.5625 -37.71875 C 16.894531 -37.757812 16.078125 -37.78125 15.109375 -37.78125 L 13.875 -37.78125 Z M 13.875 -25.6875 "/></g></g></g><g fill="#545454" fill-opacity="0.451"><g transform="translate(274.57851, 336.576548)"><g><path d="M 1.28125 -23.109375 C 1.28125 -29.796875 3.554688 -35.453125 8.109375 -40.078125 C 12.660156 -44.703125 18.144531 -47.015625 24.5625 -47.015625 C 31.019531 -47.015625 36.503906 -44.707031 41.015625 -40.09375 C 45.535156 -35.488281 47.796875 -29.828125 47.796875 -23.109375 C 47.796875 -16.359375 45.578125 -10.675781 41.140625 -6.0625 C 36.703125 -1.457031 31.175781 0.84375 24.5625 0.84375 C 17.8125 0.84375 12.242188 -1.441406 7.859375 -6.015625 C 3.472656 -10.585938 1.28125 -16.285156 1.28125 -23.109375 Z M 12.65625 -23.109375 C 12.65625 -20.691406 13.023438 -18.484375 13.765625 -16.484375 C 14.515625 -14.484375 15.820312 -12.789062 17.6875 -11.40625 C 19.550781 -10.03125 21.84375 -9.34375 24.5625 -9.34375 C 28.488281 -9.34375 31.445312 -10.6875 33.4375 -13.375 C 35.4375 -16.0625 36.4375 -19.304688 36.4375 -23.109375 C 36.4375 -26.878906 35.414062 -30.117188 33.375 -32.828125 C 31.34375 -35.535156 28.40625 -36.890625 24.5625 -36.890625 C 20.757812 -36.890625 17.820312 -35.535156 15.75 -32.828125 C 13.6875 -30.117188 12.65625 -26.878906 12.65625 -23.109375 Z M 12.65625 -23.109375 "/></g></g></g><g fill="#000000" fill-opacity="1"><g transform="translate(1.060368, 334.229254)"><g><path d="M 27.921875 -9.515625 C 29.523438 -9.515625 31.082031 -9.753906 32.59375 -10.234375 C 34.113281 -10.722656 35.226562 -11.191406 35.9375 -11.640625 L 37 -12.375 L 41.46875 -3.421875 C 41.320312 -3.304688 41.117188 -3.15625 40.859375 -2.96875 C 40.597656 -2.78125 39.988281 -2.429688 39.03125 -1.921875 C 38.082031 -1.421875 37.066406 -0.984375 35.984375 -0.609375 C 34.898438 -0.242188 33.484375 0.0859375 31.734375 0.390625 C 29.984375 0.691406 28.175781 0.84375 26.3125 0.84375 C 22.019531 0.84375 17.953125 -0.207031 14.109375 -2.3125 C 10.265625 -4.425781 7.164062 -7.328125 4.8125 -11.015625 C 2.457031 -14.710938 1.28125 -18.707031 1.28125 -23 C 1.28125 -26.25 1.96875 -29.363281 3.34375 -32.34375 C 4.726562 -35.332031 6.566406 -37.890625 8.859375 -40.015625 C 11.160156 -42.140625 13.835938 -43.835938 16.890625 -45.109375 C 19.953125 -46.378906 23.09375 -47.015625 26.3125 -47.015625 C 29.289062 -47.015625 32.039062 -46.660156 34.5625 -45.953125 C 37.082031 -45.242188 38.863281 -44.535156 39.90625 -43.828125 L 41.46875 -42.765625 L 37 -33.8125 C 36.738281 -34.03125 36.34375 -34.296875 35.8125 -34.609375 C 35.289062 -34.929688 34.242188 -35.351562 32.671875 -35.875 C 31.109375 -36.394531 29.523438 -36.65625 27.921875 -36.65625 C 25.390625 -36.65625 23.113281 -36.242188 21.09375 -35.421875 C 19.082031 -34.609375 17.488281 -33.53125 16.3125 -32.1875 C 15.132812 -30.84375 14.238281 -29.394531 13.625 -27.84375 C 13.007812 -26.289062 12.703125 -24.710938 12.703125 -23.109375 C 12.703125 -19.609375 14.015625 -16.46875 16.640625 -13.6875 C 19.273438 -10.90625 23.035156 -9.515625 27.921875 -9.515625 Z M 27.921875 -9.515625 "/></g></g></g><g fill="#000000" fill-opacity="1"><g transform="translate(43.199425, 334.229254)"><g><path d="M 1.28125 -23.109375 C 1.28125 -29.796875 3.554688 -35.453125 8.109375 -40.078125 C 12.660156 -44.703125 18.144531 -47.015625 24.5625 -47.015625 C 31.019531 -47.015625 36.503906 -44.707031 41.015625 -40.09375 C 45.535156 -35.488281 47.796875 -29.828125 47.796875 -23.109375 C 47.796875 -16.359375 45.578125 -10.675781 41.140625 -6.0625 C 36.703125 -1.457031 31.175781 0.84375 24.5625 0.84375 C 17.8125 0.84375 12.242188 -1.441406 7.859375 -6.015625 C 3.472656 -10.585938 1.28125 -16.285156 1.28125 -23.109375 Z M 12.65625 -23.109375 C 12.65625 -20.691406 13.023438 -18.484375 13.765625 -16.484375 C 14.515625 -14.484375 15.820312 -12.789062 17.6875 -11.40625 C 19.550781 -10.03125 21.84375 -9.34375 24.5625 -9.34375 C 28.488281 -9.34375 31.445312 -10.6875 33.4375 -13.375 C 35.4375 -16.0625 36.4375 -19.304688 36.4375 -23.109375 C 36.4375 -26.878906 35.414062 -30.117188 33.375 -32.828125 C 31.34375 -35.535156 28.40625 -36.890625 24.5625 -36.890625 C 20.757812 -36.890625 17.820312 -35.535156 15.75 -32.828125 C 13.6875 -30.117188 12.65625 -26.878906 12.65625 -23.109375 Z M 12.65625 -23.109375 "/></g></g></g><g fill="#000000" fill-opacity="1"><g transform="translate(92.277703, 334.229254)"><g><path d="M 3.359375 -46.171875 L 16.734375 -46.171875 C 23.148438 -46.171875 28.632812 -43.976562 33.1875 -39.59375 C 37.738281 -35.207031 40.015625 -29.710938 40.015625 -23.109375 C 40.015625 -16.472656 37.75 -10.960938 33.21875 -6.578125 C 28.6875 -2.191406 23.191406 0 16.734375 0 L 3.359375 0 Z M 13.875 -9.40625 L 15.5 -9.40625 C 19.34375 -9.40625 22.484375 -10.703125 24.921875 -13.296875 C 27.367188 -15.890625 28.613281 -19.144531 28.65625 -23.0625 C 28.65625 -26.976562 27.429688 -30.238281 24.984375 -32.84375 C 22.546875 -35.457031 19.382812 -36.765625 15.5 -36.765625 L 13.875 -36.765625 Z M 13.875 -9.40625 "/></g></g></g><g fill="#000000" fill-opacity="1"><g transform="translate(133.57734, 334.229254)"><g><path d="M 13.875 -46.171875 L 13.875 0 L 3.359375 0 L 3.359375 -46.171875 Z M 13.875 -46.171875 "/></g></g></g><g fill="#000000" fill-opacity="1"><g transform="translate(150.813507, 334.229254)"><g><path d="M 46.5625 0 L 32.96875 0 L 22.046875 -15.734375 L 11.140625 0 L -1.90625 0 L 15.5625 -24.84375 L 1 -46.171875 L 13.546875 -46.171875 L 22.046875 -33.578125 L 30.5625 -46.171875 L 43.65625 -46.171875 L 28.546875 -24.84375 Z M 46.5625 0 "/></g></g></g><g fill="#000000" fill-opacity="1"><g transform="translate(195.470826, 334.229254)"><g><path d="M 3.359375 -46.171875 L 20.203125 -46.171875 C 24.898438 -46.171875 28.703125 -44.957031 31.609375 -42.53125 C 34.523438 -40.101562 35.984375 -36.578125 35.984375 -31.953125 C 35.984375 -27.328125 34.507812 -23.695312 31.5625 -21.0625 C 28.613281 -18.4375 24.828125 -17.125 20.203125 -17.125 L 13.875 -17.125 L 13.875 0 L 3.359375 0 Z M 13.875 -25.515625 L 16.84375 -25.515625 C 19.195312 -25.515625 21.128906 -25.988281 22.640625 -26.9375 C 24.148438 -27.894531 24.90625 -29.457031 24.90625 -31.625 C 24.90625 -33.820312 24.148438 -35.394531 22.640625 -36.34375 C 21.128906 -37.300781 19.195312 -37.78125 16.84375 -37.78125 L 13.875 -37.78125 Z M 13.875 -25.515625 "/></g></g></g><g fill="#000000" fill-opacity="1"><g transform="translate(232.741227, 334.229254)"><g><path d="M 3.359375 -46.171875 L 19.875 -46.171875 C 24.3125 -46.171875 27.925781 -44.984375 30.71875 -42.609375 C 33.519531 -40.242188 34.921875 -36.863281 34.921875 -32.46875 C 34.921875 -29.070312 34.070312 -26.222656 32.375 -23.921875 C 30.675781 -21.628906 28.375 -20.015625 25.46875 -19.078125 L 41.359375 0 L 27.984375 0 L 13.875 -18.25 L 13.875 0 L 3.359375 0 Z M 13.875 -25.6875 L 15.109375 -25.6875 C 16.078125 -25.6875 16.894531 -25.703125 17.5625 -25.734375 C 18.238281 -25.773438 19.003906 -25.90625 19.859375 -26.125 C 20.722656 -26.351562 21.414062 -26.671875 21.9375 -27.078125 C 22.457031 -27.492188 22.90625 -28.09375 23.28125 -28.875 C 23.65625 -29.664062 23.84375 -30.617188 23.84375 -31.734375 C 23.84375 -32.847656 23.65625 -33.796875 23.28125 -34.578125 C 22.90625 -35.367188 22.457031 -35.96875 21.9375 -36.375 C 21.414062 -36.789062 20.722656 -37.109375 19.859375 -37.328125 C 19.003906 -37.554688 18.238281 -37.6875 17.5625 -37.71875 C 16.894531 -37.757812 16.078125 -37.78125 15.109375 -37.78125 L 13.875 -37.78125 Z M 13.875 -25.6875 "/></g></g></g><g fill="#000000" fill-opacity="1"><g transform="translate(272.809697, 334.229254)"><g><path d="M 1.28125 -23.109375 C 1.28125 -29.796875 3.554688 -35.453125 8.109375 -40.078125 C 12.660156 -44.703125 18.144531 -47.015625 24.5625 -47.015625 C 31.019531 -47.015625 36.503906 -44.707031 41.015625 -40.09375 C 45.535156 -35.488281 47.796875 -29.828125 47.796875 -23.109375 C 47.796875 -16.359375 45.578125 -10.675781 41.140625 -6.0625 C 36.703125 -1.457031 31.175781 0.84375 24.5625 0.84375 C 17.8125 0.84375 12.242188 -1.441406 7.859375 -6.015625 C 3.472656 -10.585938 1.28125 -16.285156 1.28125 -23.109375 Z M 12.65625 -23.109375 C 12.65625 -20.691406 13.023438 -18.484375 13.765625 -16.484375 C 14.515625 -14.484375 15.820312 -12.789062 17.6875 -11.40625 C 19.550781 -10.03125 21.84375 -9.34375 24.5625 -9.34375 C 28.488281 -9.34375 31.445312 -10.6875 33.4375 -13.375 C 35.4375 -16.0625 36.4375 -19.304688 36.4375 -23.109375 C 36.4375 -26.878906 35.414062 -30.117188 33.375 -32.828125 C 31.34375 -35.535156 28.40625 -36.890625 24.5625 -36.890625 C 20.757812 -36.890625 17.820312 -35.535156 15.75 -32.828125 C 13.6875 -30.117188 12.65625 -26.878906 12.65625 -23.109375 Z M 12.65625 -23.109375 "/></g></g></g><g clip-path="url(#9096a3c0ee)"><g transform="matrix(1, 0, 0, 1, 75, 338)"><g clip-path="url(#861442cd0d)"><g clip-path="url(#15d4e392af)"><g fill="#000000" fill-opacity="1"><g transform="translate(0.100298, 23.41046)"><g><path d="M 6.796875 0 L 4.40625 0 L 0.84375 -15.5625 L 2.65625 -15.5625 L 5.578125 -2.6875 L 5.84375 -2.6875 L 9.328125 -15.5625 L 11.03125 -15.5625 L 14.515625 -2.6875 L 14.78125 -2.6875 L 17.71875 -15.5625 L 19.484375 -15.5625 L 15.921875 0 L 13.515625 0 L 10.265625 -11.78125 L 10.046875 -11.78125 Z M 6.796875 0 "/></g></g></g></g><g fill="#000000" fill-opacity="1"><g transform="translate(20.068419, 23.41046)"><g><path d="M 11.1875 -5.46875 L 3.125 -5.46875 C 3.164062 -4.039062 3.503906 -2.992188 4.140625 -2.328125 C 4.773438 -1.660156 5.648438 -1.328125 6.765625 -1.328125 C 7.597656 -1.328125 8.269531 -1.472656 8.78125 -1.765625 C 9.289062 -2.066406 9.691406 -2.539062 9.984375 -3.1875 L 10.203125 -3.1875 L 11.328125 -2.515625 C 10.992188 -1.660156 10.453125 -0.988281 9.703125 -0.5 C 8.953125 -0.0195312 7.972656 0.21875 6.765625 0.21875 C 5.628906 0.21875 4.648438 -0.00390625 3.828125 -0.453125 C 3.015625 -0.898438 2.382812 -1.578125 1.9375 -2.484375 C 1.5 -3.390625 1.28125 -4.515625 1.28125 -5.859375 C 1.28125 -7.191406 1.515625 -8.316406 1.984375 -9.234375 C 2.453125 -10.148438 3.085938 -10.832031 3.890625 -11.28125 C 4.691406 -11.738281 5.613281 -11.96875 6.65625 -11.96875 C 8.15625 -11.96875 9.328125 -11.539062 10.171875 -10.6875 C 11.015625 -9.84375 11.441406 -8.585938 11.453125 -6.921875 C 11.453125 -6.265625 11.4375 -5.820312 11.40625 -5.59375 Z M 9.734375 -6.921875 C 9.710938 -8.171875 9.4375 -9.078125 8.90625 -9.640625 C 8.382812 -10.210938 7.632812 -10.5 6.65625 -10.5 C 5.625 -10.5 4.816406 -10.210938 4.234375 -9.640625 C 3.648438 -9.066406 3.289062 -8.160156 3.15625 -6.921875 Z M 9.734375 -6.921875 "/></g></g></g><g fill="#000000" fill-opacity="1"><g transform="translate(32.585758, 23.41046)"><g/></g></g><g fill="#000000" fill-opacity="1"><g transform="translate(37.929044, 23.41046)"><g><path d="M 8.59375 0.21875 C 7.238281 0.21875 6.023438 -0.09375 4.953125 -0.71875 C 3.890625 -1.34375 3.054688 -2.253906 2.453125 -3.453125 C 1.847656 -4.648438 1.546875 -6.09375 1.546875 -7.78125 C 1.546875 -9.457031 1.847656 -10.894531 2.453125 -12.09375 C 3.054688 -13.300781 3.890625 -14.21875 4.953125 -14.84375 C 6.023438 -15.46875 7.238281 -15.78125 8.59375 -15.78125 C 10.050781 -15.78125 11.257812 -15.503906 12.21875 -14.953125 C 13.1875 -14.410156 13.882812 -13.582031 14.3125 -12.46875 L 13.140625 -11.703125 L 12.875 -11.703125 C 12.445312 -12.585938 11.894531 -13.210938 11.21875 -13.578125 C 10.539062 -13.953125 9.664062 -14.140625 8.59375 -14.140625 C 7.613281 -14.140625 6.742188 -13.921875 5.984375 -13.484375 C 5.234375 -13.046875 4.632812 -12.351562 4.1875 -11.40625 C 3.738281 -10.46875 3.515625 -9.257812 3.515625 -7.78125 C 3.515625 -6.300781 3.738281 -5.085938 4.1875 -4.140625 C 4.632812 -3.203125 5.234375 -2.515625 5.984375 -2.078125 C 6.742188 -1.640625 7.613281 -1.421875 8.59375 -1.421875 C 9.726562 -1.421875 10.648438 -1.675781 11.359375 -2.1875 C 12.078125 -2.695312 12.613281 -3.519531 12.96875 -4.65625 L 13.234375 -4.65625 L 14.453125 -4.046875 C 14.085938 -2.671875 13.40625 -1.613281 12.40625 -0.875 C 11.40625 -0.144531 10.132812 0.21875 8.59375 0.21875 Z M 8.59375 0.21875 "/></g></g></g><g fill="#000000" fill-opacity="1"><g transform="translate(53.192534, 23.41046)"><g><path d="M 6.734375 0.21875 C 5.628906 0.21875 4.664062 -0.015625 3.84375 -0.484375 C 3.03125 -0.953125 2.398438 -1.640625 1.953125 -2.546875 C 1.503906 -3.460938 1.28125 -4.566406 1.28125 -5.859375 C 1.28125 -7.160156 1.503906 -8.269531 1.953125 -9.1875 C 2.398438 -10.101562 3.03125 -10.796875 3.84375 -11.265625 C 4.664062 -11.734375 5.628906 -11.96875 6.734375 -11.96875 C 7.835938 -11.96875 8.800781 -11.734375 9.625 -11.265625 C 10.445312 -10.796875 11.078125 -10.101562 11.515625 -9.1875 C 11.960938 -8.269531 12.1875 -7.160156 12.1875 -5.859375 C 12.1875 -4.566406 11.960938 -3.460938 11.515625 -2.546875 C 11.078125 -1.640625 10.445312 -0.953125 9.625 -0.484375 C 8.800781 -0.015625 7.835938 0.21875 6.734375 0.21875 Z M 6.734375 -1.328125 C 7.910156 -1.328125 8.804688 -1.695312 9.421875 -2.4375 C 10.046875 -3.175781 10.359375 -4.316406 10.359375 -5.859375 C 10.359375 -7.410156 10.046875 -8.554688 9.421875 -9.296875 C 8.804688 -10.035156 7.910156 -10.40625 6.734375 -10.40625 C 5.566406 -10.40625 4.671875 -10.035156 4.046875 -9.296875 C 3.421875 -8.554688 3.109375 -7.410156 3.109375 -5.859375 C 3.109375 -4.316406 3.421875 -3.175781 4.046875 -2.4375 C 4.671875 -1.695312 5.566406 -1.328125 6.734375 -1.328125 Z M 6.734375 -1.328125 "/></g></g></g><g fill="#000000" fill-opacity="1"><g transform="translate(66.667833, 23.41046)"><g><path d="M 6.09375 0.21875 C 5.144531 0.21875 4.3125 -0.00390625 3.59375 -0.453125 C 2.875 -0.898438 2.304688 -1.578125 1.890625 -2.484375 C 1.484375 -3.398438 1.28125 -4.523438 1.28125 -5.859375 C 1.28125 -7.203125 1.492188 -8.328125 1.921875 -9.234375 C 2.347656 -10.148438 2.9375 -10.832031 3.6875 -11.28125 C 4.4375 -11.738281 5.304688 -11.96875 6.296875 -11.96875 C 7.066406 -11.96875 7.765625 -11.816406 8.390625 -11.515625 C 9.015625 -11.222656 9.550781 -10.738281 10 -10.0625 L 10.234375 -10.109375 L 10.234375 -16.453125 L 11.96875 -16.453125 L 11.96875 0 L 10.234375 0 L 10.234375 -1.71875 L 10 -1.75 C 9.625 -1.175781 9.101562 -0.703125 8.4375 -0.328125 C 7.78125 0.0351562 7 0.21875 6.09375 0.21875 Z M 6.625 -1.328125 C 7.71875 -1.328125 8.59375 -1.703125 9.25 -2.453125 C 9.90625 -3.203125 10.234375 -4.335938 10.234375 -5.859375 C 10.234375 -7.390625 9.90625 -8.53125 9.25 -9.28125 C 8.59375 -10.03125 7.71875 -10.40625 6.625 -10.40625 C 5.5 -10.40625 4.628906 -10.039062 4.015625 -9.3125 C 3.410156 -8.582031 3.109375 -7.429688 3.109375 -5.859375 C 3.109375 -2.835938 4.28125 -1.328125 6.625 -1.328125 Z M 6.625 -1.328125 "/></g></g></g><g fill="#000000" fill-opacity="1"><g transform="translate(80.685984, 23.41046)"><g><path d="M 11.1875 -5.46875 L 3.125 -5.46875 C 3.164062 -4.039062 3.503906 -2.992188 4.140625 -2.328125 C 4.773438 -1.660156 5.648438 -1.328125 6.765625 -1.328125 C 7.597656 -1.328125 8.269531 -1.472656 8.78125 -1.765625 C 9.289062 -2.066406 9.691406 -2.539062 9.984375 -3.1875 L 10.203125 -3.1875 L 11.328125 -2.515625 C 10.992188 -1.660156 10.453125 -0.988281 9.703125 -0.5 C 8.953125 -0.0195312 7.972656 0.21875 6.765625 0.21875 C 5.628906 0.21875 4.648438 -0.00390625 3.828125 -0.453125 C 3.015625 -0.898438 2.382812 -1.578125 1.9375 -2.484375 C 1.5 -3.390625 1.28125 -4.515625 1.28125 -5.859375 C 1.28125 -7.191406 1.515625 -8.316406 1.984375 -9.234375 C 2.453125 -10.148438 3.085938 -10.832031 3.890625 -11.28125 C 4.691406 -11.738281 5.613281 -11.96875 6.65625 -11.96875 C 8.15625 -11.96875 9.328125 -11.539062 10.171875 -10.6875 C 11.015625 -9.84375 11.441406 -8.585938 11.453125 -6.921875 C 11.453125 -6.265625 11.4375 -5.820312 11.40625 -5.59375 Z M 9.734375 -6.921875 C 9.710938 -8.171875 9.4375 -9.078125 8.90625 -9.640625 C 8.382812 -10.210938 7.632812 -10.5 6.65625 -10.5 C 5.625 -10.5 4.816406 -10.210938 4.234375 -9.640625 C 3.648438 -9.066406 3.289062 -8.160156 3.15625 -6.921875 Z M 9.734375 -6.921875 "/></g></g></g><g fill="#000000" fill-opacity="1"><g transform="translate(93.203323, 23.41046)"><g/></g></g><g fill="#000000" fill-opacity="1"><g transform="translate(98.546609, 23.41046)"><g><path d="M 7.59375 0 L 5.78125 0 L 5.78125 -6.109375 L 0.40625 -15.5625 L 2.40625 -15.5625 L 6.59375 -8.265625 L 6.859375 -8.265625 L 11.03125 -15.5625 L 12.984375 -15.5625 L 7.59375 -6.109375 Z M 7.59375 0 "/></g></g></g><g fill="#000000" fill-opacity="1"><g transform="translate(110.414548, 23.41046)"><g><path d="M 6.734375 0.21875 C 5.628906 0.21875 4.664062 -0.015625 3.84375 -0.484375 C 3.03125 -0.953125 2.398438 -1.640625 1.953125 -2.546875 C 1.503906 -3.460938 1.28125 -4.566406 1.28125 -5.859375 C 1.28125 -7.160156 1.503906 -8.269531 1.953125 -9.1875 C 2.398438 -10.101562 3.03125 -10.796875 3.84375 -11.265625 C 4.664062 -11.734375 5.628906 -11.96875 6.734375 -11.96875 C 7.835938 -11.96875 8.800781 -11.734375 9.625 -11.265625 C 10.445312 -10.796875 11.078125 -10.101562 11.515625 -9.1875 C 11.960938 -8.269531 12.1875 -7.160156 12.1875 -5.859375 C 12.1875 -4.566406 11.960938 -3.460938 11.515625 -2.546875 C 11.078125 -1.640625 10.445312 -0.953125 9.625 -0.484375 C 8.800781 -0.015625 7.835938 0.21875 6.734375 0.21875 Z M 6.734375 -1.328125 C 7.910156 -1.328125 8.804688 -1.695312 9.421875 -2.4375 C 10.046875 -3.175781 10.359375 -4.316406 10.359375 -5.859375 C 10.359375 -7.410156 10.046875 -8.554688 9.421875 -9.296875 C 8.804688 -10.035156 7.910156 -10.40625 6.734375 -10.40625 C 5.566406 -10.40625 4.671875 -10.035156 4.046875 -9.296875 C 3.421875 -8.554688 3.109375 -7.410156 3.109375 -5.859375 C 3.109375 -4.316406 3.421875 -3.175781 4.046875 -2.4375 C 4.671875 -1.695312 5.566406 -1.328125 6.734375 -1.328125 Z M 6.734375 -1.328125 "/></g></g></g><g fill="#000000" fill-opacity="1"><g transform="translate(123.889847, 23.41046)"><g><path d="M 5.796875 0.21875 C 4.472656 0.21875 3.484375 -0.128906 2.828125 -0.828125 C 2.179688 -1.535156 1.859375 -2.566406 1.859375 -3.921875 L 1.859375 -11.734375 L 3.59375 -11.734375 L 3.59375 -3.953125 C 3.59375 -2.171875 4.429688 -1.28125 6.109375 -1.28125 C 7.171875 -1.28125 8.007812 -1.628906 8.625 -2.328125 C 9.25 -3.023438 9.5625 -4.15625 9.5625 -5.71875 L 9.5625 -11.734375 L 11.296875 -11.734375 L 11.296875 0 L 9.65625 0 L 9.65625 -1.84375 L 9.4375 -1.890625 C 9.03125 -1.171875 8.539062 -0.640625 7.96875 -0.296875 C 7.40625 0.046875 6.679688 0.21875 5.796875 0.21875 Z M 5.796875 0.21875 "/></g></g></g><g fill="#000000" fill-opacity="1"><g transform="translate(137.226782, 23.41046)"><g><path d="M 2.046875 0 L 2.046875 -11.734375 L 3.6875 -11.734375 L 3.6875 -9.890625 L 3.921875 -9.84375 C 4.460938 -11.175781 5.488281 -11.84375 7 -11.84375 C 7.800781 -11.84375 8.398438 -11.695312 8.796875 -11.40625 L 8.359375 -9.9375 L 8.140625 -9.890625 C 7.703125 -10.117188 7.21875 -10.234375 6.6875 -10.234375 C 5.757812 -10.234375 5.039062 -9.878906 4.53125 -9.171875 C 4.03125 -8.472656 3.78125 -7.335938 3.78125 -5.765625 L 3.78125 0 Z M 2.046875 0 "/></g></g></g><g fill="#000000" fill-opacity="1"><g transform="translate(146.295466, 23.41046)"><g/></g></g><g fill="#000000" fill-opacity="1"><g transform="translate(151.638752, 23.41046)"><g><path d="M 8.1875 0.21875 C 6.875 0.21875 5.71875 -0.078125 4.71875 -0.671875 C 3.726562 -1.265625 2.953125 -2.160156 2.390625 -3.359375 C 1.828125 -4.554688 1.546875 -6.03125 1.546875 -7.78125 C 1.546875 -9.519531 1.847656 -10.988281 2.453125 -12.1875 C 3.054688 -13.394531 3.890625 -14.296875 4.953125 -14.890625 C 6.015625 -15.484375 7.238281 -15.78125 8.625 -15.78125 C 10.113281 -15.78125 11.335938 -15.507812 12.296875 -14.96875 C 13.253906 -14.4375 13.9375 -13.640625 14.34375 -12.578125 L 13.140625 -11.875 L 12.875 -11.875 C 12.46875 -12.6875 11.921875 -13.265625 11.234375 -13.609375 C 10.546875 -13.960938 9.675781 -14.140625 8.625 -14.140625 C 5.21875 -14.140625 3.515625 -12.019531 3.515625 -7.78125 C 3.515625 -5.570312 3.941406 -3.957031 4.796875 -2.9375 C 5.660156 -1.925781 6.863281 -1.421875 8.40625 -1.421875 C 9.820312 -1.421875 10.882812 -1.742188 11.59375 -2.390625 C 12.300781 -3.035156 12.65625 -4.054688 12.65625 -5.453125 L 12.65625 -6.828125 L 8.234375 -6.828125 L 8.234375 -8.296875 L 14.4375 -8.296875 L 14.4375 0 L 12.734375 0 L 12.734375 -2.09375 L 12.515625 -2.140625 C 12.109375 -1.335938 11.535156 -0.742188 10.796875 -0.359375 C 10.066406 0.0234375 9.195312 0.21875 8.1875 0.21875 Z M 8.1875 0.21875 "/></g></g></g><g fill="#000000" fill-opacity="1"><g transform="translate(167.817626, 23.41046)"><g><path d="M 2.046875 0 L 2.046875 -11.734375 L 3.6875 -11.734375 L 3.6875 -9.890625 L 3.921875 -9.84375 C 4.460938 -11.175781 5.488281 -11.84375 7 -11.84375 C 7.800781 -11.84375 8.398438 -11.695312 8.796875 -11.40625 L 8.359375 -9.9375 L 8.140625 -9.890625 C 7.703125 -10.117188 7.21875 -10.234375 6.6875 -10.234375 C 5.757812 -10.234375 5.039062 -9.878906 4.53125 -9.171875 C 4.03125 -8.472656 3.78125 -7.335938 3.78125 -5.765625 L 3.78125 0 Z M 2.046875 0 "/></g></g></g><g fill="#000000" fill-opacity="1"><g transform="translate(176.577612, 23.41046)"><g><path d="M 6.734375 0.21875 C 5.628906 0.21875 4.664062 -0.015625 3.84375 -0.484375 C 3.03125 -0.953125 2.398438 -1.640625 1.953125 -2.546875 C 1.503906 -3.460938 1.28125 -4.566406 1.28125 -5.859375 C 1.28125 -7.160156 1.503906 -8.269531 1.953125 -9.1875 C 2.398438 -10.101562 3.03125 -10.796875 3.84375 -11.265625 C 4.664062 -11.734375 5.628906 -11.96875 6.734375 -11.96875 C 7.835938 -11.96875 8.800781 -11.734375 9.625 -11.265625 C 10.445312 -10.796875 11.078125 -10.101562 11.515625 -9.1875 C 11.960938 -8.269531 12.1875 -7.160156 12.1875 -5.859375 C 12.1875 -4.566406 11.960938 -3.460938 11.515625 -2.546875 C 11.078125 -1.640625 10.445312 -0.953125 9.625 -0.484375 C 8.800781 -0.015625 7.835938 0.21875 6.734375 0.21875 Z M 6.734375 -1.328125 C 7.910156 -1.328125 8.804688 -1.695312 9.421875 -2.4375 C 10.046875 -3.175781 10.359375 -4.316406 10.359375 -5.859375 C 10.359375 -7.410156 10.046875 -8.554688 9.421875 -9.296875 C 8.804688 -10.035156 7.910156 -10.40625 6.734375 -10.40625 C 5.566406 -10.40625 4.671875 -10.035156 4.046875 -9.296875 C 3.421875 -8.554688 3.109375 -7.410156 3.109375 -5.859375 C 3.109375 -4.316406 3.421875 -3.175781 4.046875 -2.4375 C 4.671875 -1.695312 5.566406 -1.328125 6.734375 -1.328125 Z M 6.734375 -1.328125 "/></g></g></g><g fill="#000000" fill-opacity="1"><g transform="translate(189.967759, 23.41046)"><g><path d="M 5.828125 0 L 3.625 0 L 0.75 -11.734375 L 2.46875 -11.734375 L 4.6875 -2.015625 L 4.921875 -2.015625 L 7.65625 -11.734375 L 9.46875 -11.734375 L 12.296875 -2.015625 L 12.515625 -2.015625 L 14.703125 -11.734375 L 16.359375 -11.734375 L 13.515625 0 L 11.3125 0 L 8.625 -9.109375 L 8.40625 -9.109375 Z M 5.828125 0 "/></g></g></g><g fill="#000000" fill-opacity="1"><g transform="translate(207.221684, 23.41046)"><g><path d="M 7.9375 -1.859375 L 8.5 -0.625 C 8.21875 -0.34375 7.847656 -0.132812 7.390625 0 C 6.941406 0.144531 6.457031 0.21875 5.9375 0.21875 C 3.695312 0.21875 2.578125 -0.914062 2.578125 -3.1875 L 2.578125 -10.328125 L 0.53125 -10.328125 L 0.53125 -11.75 L 2.578125 -11.75 L 2.578125 -14.234375 L 4.3125 -14.515625 L 4.3125 -11.75 L 8.09375 -11.75 L 8.09375 -10.328125 L 4.3125 -10.328125 L 4.3125 -3.359375 C 4.3125 -2.003906 4.894531 -1.328125 6.0625 -1.328125 C 6.707031 -1.328125 7.257812 -1.503906 7.71875 -1.859375 Z M 7.9375 -1.859375 "/></g></g></g><g fill="#000000" fill-opacity="1"><g transform="translate(216.162641, 23.41046)"><g><path d="M 2.046875 0 L 2.046875 -16.453125 L 3.78125 -16.453125 L 3.78125 -10.0625 L 4 -10.03125 C 4.832031 -11.320312 6.039062 -11.96875 7.625 -11.96875 C 9.039062 -11.96875 10.066406 -11.601562 10.703125 -10.875 C 11.335938 -10.15625 11.65625 -9.050781 11.65625 -7.5625 L 11.65625 0 L 9.921875 0 L 9.921875 -7.515625 C 9.921875 -8.222656 9.828125 -8.789062 9.640625 -9.21875 C 9.460938 -9.644531 9.179688 -9.957031 8.796875 -10.15625 C 8.421875 -10.351562 7.925781 -10.453125 7.3125 -10.453125 C 6.25 -10.453125 5.394531 -10.109375 4.75 -9.421875 C 4.101562 -8.734375 3.78125 -7.601562 3.78125 -6.03125 L 3.78125 0 Z M 2.046875 0 "/></g></g></g><g fill="#000000" fill-opacity="1"><g transform="translate(229.680516, 23.41046)"><g><path d="M 2.859375 0.109375 C 2.453125 0.109375 2.128906 -0.00390625 1.890625 -0.234375 C 1.660156 -0.460938 1.546875 -0.765625 1.546875 -1.140625 C 1.546875 -1.503906 1.660156 -1.804688 1.890625 -2.046875 C 2.128906 -2.285156 2.453125 -2.40625 2.859375 -2.40625 C 3.273438 -2.40625 3.597656 -2.289062 3.828125 -2.0625 C 4.066406 -1.832031 4.1875 -1.53125 4.1875 -1.15625 C 4.1875 -0.78125 4.066406 -0.472656 3.828125 -0.234375 C 3.585938 -0.00390625 3.265625 0.109375 2.859375 0.109375 Z M 2.859375 0.109375 "/></g></g></g><g fill="#000000" fill-opacity="1"><g transform="translate(235.417637, 23.41046)"><g><path d="M 2.859375 0.109375 C 2.453125 0.109375 2.128906 -0.00390625 1.890625 -0.234375 C 1.660156 -0.460938 1.546875 -0.765625 1.546875 -1.140625 C 1.546875 -1.503906 1.660156 -1.804688 1.890625 -2.046875 C 2.128906 -2.285156 2.453125 -2.40625 2.859375 -2.40625 C 3.273438 -2.40625 3.597656 -2.289062 3.828125 -2.0625 C 4.066406 -1.832031 4.1875 -1.53125 4.1875 -1.15625 C 4.1875 -0.78125 4.066406 -0.472656 3.828125 -0.234375 C 3.585938 -0.00390625 3.265625 0.109375 2.859375 0.109375 Z M 2.859375 0.109375 "/></g></g></g><g fill="#000000" fill-opacity="1"><g transform="translate(241.154759, 23.41046)"><g><path d="M 2.859375 0.109375 C 2.453125 0.109375 2.128906 -0.00390625 1.890625 -0.234375 C 1.660156 -0.460938 1.546875 -0.765625 1.546875 -1.140625 C 1.546875 -1.503906 1.660156 -1.804688 1.890625 -2.046875 C 2.128906 -2.285156 2.453125 -2.40625 2.859375 -2.40625 C 3.273438 -2.40625 3.597656 -2.289062 3.828125 -2.0625 C 4.066406 -1.832031 4.1875 -1.53125 4.1875 -1.15625 C 4.1875 -0.78125 4.066406 -0.472656 3.828125 -0.234375 C 3.585938 -0.00390625 3.265625 0.109375 2.859375 0.109375 Z M 2.859375 0.109375 "/></g></g></g></g></g></g></g></g></svg>