<svg xmlns="http://www.w3.org/2000/svg" xmlns:xlink="http://www.w3.org/1999/xlink" width="500" zoomAndPan="magnify" viewBox="0 0 375 374.999991" height="500" preserveAspectRatio="xMidYMid meet" version="1.0"><defs><clipPath id="b7e398eed9"><path d="M 68 3.441406 L 330 3.441406 L 330 155 L 68 155 Z M 68 3.441406 " clip-rule="nonzero"/></clipPath><clipPath id="e22ed5552b"><path d="M 29 197 L 292 197 L 292 348.960938 L 29 348.960938 Z M 29 197 " clip-rule="nonzero"/></clipPath><clipPath id="2a25bb61f6"><path d="M 6.339844 26 L 158 26 L 158 288 L 6.339844 288 Z M 6.339844 26 " clip-rule="nonzero"/></clipPath><clipPath id="7a40b5311a"><path d="M 62 0.808594 L 324 0.808594 L 324 152 L 62 152 Z M 62 0.808594 " clip-rule="nonzero"/></clipPath><clipPath id="93f4559fe2"><path d="M 23 195 L 286 195 L 286 346.585938 L 23 346.585938 Z M 23 195 " clip-rule="nonzero"/></clipPath><clipPath id="62531b18f7"><rect x="0" width="354" y="0" height="349"/></clipPath></defs><g transform="matrix(1, 0, 0, 1, 10, 12)"><g clip-path="url(#62531b18f7)"><g clip-path="url(#b7e398eed9)"><path fill="#b4b4b4" d="M 142.25 125.566406 L 165.320312 148.449219 C 173.234375 156.265625 186.007812 156.265625 193.921875 148.449219 L 212.894531 129.667969 L 216.898438 125.472656 L 327.582031 14.691406 C 331.777344 10.496094 328.824219 3.441406 322.910156 3.441406 L 284.015625 3.441406 C 271.523438 3.441406 259.511719 8.398438 250.648438 17.265625 L 179.621094 88.289062 L 156.167969 64.835938 C 147.492188 56.160156 135.765625 51.300781 123.46875 51.300781 L 68.171875 51.300781 L 142.4375 125.566406 Z M 142.25 125.566406 " fill-opacity="1" fill-rule="nonzero"/></g><g clip-path="url(#e22ed5552b)"><path fill="#b4b4b4" d="M 216.898438 226.71875 L 193.824219 203.839844 C 185.914062 195.925781 173.136719 195.925781 165.226562 203.839844 L 146.253906 222.621094 L 142.25 226.816406 L 31.5625 337.691406 C 27.367188 341.886719 30.324219 348.941406 36.234375 348.941406 L 75.609375 348.941406 C 87.90625 348.941406 99.632812 344.078125 108.308594 335.402344 L 179.621094 264.089844 L 202.789062 287.257812 C 211.652344 296.125 223.667969 301.082031 236.25 301.082031 L 291.070312 301.082031 L 216.800781 226.816406 Z M 216.898438 226.71875 " fill-opacity="1" fill-rule="nonzero"/></g><g clip-path="url(#2a25bb61f6)"><path fill="#545454" d="M 91.71875 176.191406 L 68.457031 199.453125 C 59.6875 208.222656 54.730469 220.140625 54.730469 232.535156 L 54.730469 287.640625 L 128.996094 213.371094 L 129.09375 213.46875 L 152.070312 190.394531 C 159.980469 182.484375 159.886719 169.613281 151.972656 161.699219 L 18.023438 28.039062 C 13.925781 23.9375 6.871094 26.796875 6.871094 32.707031 L 6.871094 71.890625 C 6.871094 84.476562 11.734375 96.296875 20.695312 105.164062 Z M 91.71875 176.191406 " fill-opacity="1" fill-rule="nonzero"/></g><path fill="#545454" d="M 338.832031 247.40625 L 267.902344 176.191406 L 291.449219 152.546875 C 299.9375 143.96875 304.796875 132.429688 304.796875 120.324219 L 304.796875 64.742188 L 230.910156 139.007812 L 230.816406 138.914062 L 208.222656 161.792969 C 200.402344 169.707031 200.402344 182.292969 208.125 190.300781 L 230.910156 213.65625 L 231.007812 213.5625 L 341.597656 324.628906 C 345.601562 328.730469 352.5625 325.871094 352.5625 320.054688 L 352.5625 280.296875 C 352.371094 267.90625 347.507812 256.179688 338.832031 247.40625 Z M 338.832031 247.40625 " fill-opacity="1" fill-rule="nonzero"/><g clip-path="url(#7a40b5311a)"><path fill="#000000" d="M 136.542969 122.9375 L 159.613281 145.816406 C 167.527344 153.636719 180.304688 153.636719 188.214844 145.816406 L 207.1875 127.035156 L 211.191406 122.839844 L 321.878906 12.058594 C 326.074219 7.863281 323.117188 0.808594 317.207031 0.808594 L 278.308594 0.808594 C 265.820312 0.808594 253.808594 5.765625 244.941406 14.632812 L 173.914062 85.660156 L 150.460938 62.207031 C 141.785156 53.53125 130.058594 48.667969 117.761719 48.667969 L 62.464844 48.667969 L 136.734375 122.9375 Z M 136.542969 122.9375 " fill-opacity="1" fill-rule="nonzero"/></g><g clip-path="url(#93f4559fe2)"><path fill="#000000" d="M 211.191406 224.089844 L 188.121094 201.207031 C 180.207031 193.292969 167.433594 193.292969 159.519531 201.207031 L 140.546875 219.988281 L 136.542969 224.183594 L 25.855469 335.0625 C 21.664062 339.253906 24.617188 346.308594 30.527344 346.308594 L 69.902344 346.308594 C 82.203125 346.308594 93.929688 341.449219 102.601562 332.773438 L 173.914062 261.460938 L 197.082031 284.628906 C 205.949219 293.492188 217.960938 298.453125 230.546875 298.453125 L 285.363281 298.453125 L 211.097656 224.183594 Z M 211.191406 224.089844 " fill-opacity="1" fill-rule="nonzero"/></g><path fill="#000000" d="M 86.015625 173.558594 L 62.753906 196.824219 C 53.980469 205.59375 49.023438 217.511719 49.023438 229.902344 L 49.023438 285.007812 L 123.292969 210.742188 L 123.386719 210.835938 L 146.363281 187.765625 C 154.277344 179.851562 154.179688 166.980469 146.269531 159.070312 L 12.320312 25.40625 C 8.21875 21.308594 1.164062 24.167969 1.164062 30.078125 L 1.164062 69.261719 C 1.164062 81.847656 6.027344 93.667969 14.988281 102.535156 Z M 86.015625 173.558594 " fill-opacity="1" fill-rule="nonzero"/><path fill="#000000" d="M 333.128906 244.777344 L 262.195312 173.558594 L 285.746094 149.917969 C 294.230469 141.335938 299.09375 129.800781 299.09375 117.691406 L 299.09375 62.113281 L 225.207031 136.378906 L 225.109375 136.285156 L 202.515625 159.164062 C 194.699219 167.078125 194.699219 179.660156 202.421875 187.671875 L 225.207031 211.027344 L 225.300781 210.933594 L 335.890625 322 C 339.898438 326.097656 346.855469 323.238281 346.855469 317.421875 L 346.855469 277.667969 C 346.664062 265.273438 341.804688 253.546875 333.128906 244.777344 Z M 333.128906 244.777344 " fill-opacity="1" fill-rule="nonzero"/></g></g></svg>