<svg xmlns="http://www.w3.org/2000/svg" xmlns:xlink="http://www.w3.org/1999/xlink" width="500" zoomAndPan="magnify" viewBox="0 0 375 374.999991" height="500" preserveAspectRatio="xMidYMid meet" version="1.0"><defs><g/><clipPath id="04d3c29646"><path d="M 52 2.351562 L 217 2.351562 L 217 98 L 52 98 Z M 52 2.351562 " clip-rule="nonzero"/></clipPath><clipPath id="6455d03a96"><path d="M 28 124 L 193 124 L 193 219.148438 L 28 219.148438 Z M 28 124 " clip-rule="nonzero"/></clipPath><clipPath id="a540cf646b"><path d="M 136 40 L 231.667969 40 L 231.667969 206 L 136 206 Z M 136 40 " clip-rule="nonzero"/></clipPath><clipPath id="4ee8f1c682"><path d="M 49 0.699219 L 214 0.699219 L 214 96 L 49 96 Z M 49 0.699219 " clip-rule="nonzero"/></clipPath><clipPath id="92213827be"><path d="M 24 122 L 190 122 L 190 217.492188 L 24 217.492188 Z M 24 122 " clip-rule="nonzero"/></clipPath><clipPath id="d269a24797"><path d="M 10.199219 14 L 106 14 L 106 180 L 10.199219 180 Z M 10.199219 14 " clip-rule="nonzero"/></clipPath><clipPath id="0036c7cf1d"><path d="M 59 264 L 253 264 L 253 288.160156 L 59 288.160156 Z M 59 264 " clip-rule="nonzero"/></clipPath><clipPath id="1c8636abcd"><rect x="0" width="194" y="0" height="25"/></clipPath><clipPath id="befe5f0eb9"><rect x="0" width="255" y="0" height="289"/></clipPath></defs><rect x="-37.5" width="450" fill="#ffffff" y="-37.499999" height="449.999989" fill-opacity="1"/><rect x="-37.5" width="450" fill="#000000" y="-37.499999" height="449.999989" fill-opacity="1"/><g transform="matrix(1, 0, 0, 1, 61, 44)"><g clip-path="url(#befe5f0eb9)"><g clip-path="url(#04d3c29646)"><path fill="#b4b4b4" d="M 99.1875 79.085938 L 113.683594 93.464844 C 118.652344 98.375 126.679688 98.375 131.652344 93.464844 L 143.574219 81.664062 L 146.089844 79.027344 L 215.632812 9.421875 C 218.269531 6.785156 216.414062 2.351562 212.699219 2.351562 L 188.257812 2.351562 C 180.414062 2.351562 172.863281 5.46875 167.292969 11.039062 L 122.667969 55.664062 L 107.929688 40.929688 C 102.480469 35.480469 95.113281 32.425781 87.386719 32.425781 L 52.640625 32.425781 L 99.304688 79.085938 Z M 99.1875 79.085938 " fill-opacity="1" fill-rule="nonzero"/></g><g clip-path="url(#6455d03a96)"><path fill="#b4b4b4" d="M 146.089844 142.640625 L 131.59375 128.265625 C 126.621094 123.292969 118.59375 123.292969 113.621094 128.265625 L 101.703125 140.066406 L 99.1875 142.703125 L 29.640625 212.367188 C 27.003906 215.003906 28.863281 219.4375 32.574219 219.4375 L 57.316406 219.4375 C 65.042969 219.4375 72.410156 216.382812 77.859375 210.929688 L 122.667969 166.125 L 137.222656 180.679688 C 142.792969 186.25 150.339844 189.367188 158.25 189.367188 L 192.691406 189.367188 L 146.027344 142.703125 Z M 146.089844 142.640625 " fill-opacity="1" fill-rule="nonzero"/></g><path fill="#545454" d="M 67.4375 110.894531 L 52.820312 125.511719 C 47.3125 131.023438 44.195312 138.507812 44.195312 146.296875 L 44.195312 180.917969 L 90.859375 134.257812 L 90.917969 134.316406 L 105.355469 119.820312 C 110.328125 114.847656 110.269531 106.761719 105.296875 101.789062 L 21.132812 17.808594 C 18.558594 15.230469 14.125 17.027344 14.125 20.742188 L 14.125 45.363281 C 14.125 53.269531 17.179688 60.699219 22.8125 66.269531 Z M 67.4375 110.894531 " fill-opacity="1" fill-rule="nonzero"/><g clip-path="url(#a540cf646b)"><path fill="#545454" d="M 222.703125 155.640625 L 178.136719 110.894531 L 192.929688 96.039062 C 198.261719 90.648438 201.316406 83.398438 201.316406 75.792969 L 201.316406 40.871094 L 154.894531 87.535156 L 154.835938 87.472656 L 140.636719 101.851562 C 135.726562 106.820312 135.726562 114.726562 140.578125 119.761719 L 154.894531 134.4375 L 154.953125 134.375 L 224.441406 204.160156 C 226.957031 206.738281 231.328125 204.941406 231.328125 201.285156 L 231.328125 176.308594 C 231.207031 168.519531 228.152344 161.152344 222.703125 155.640625 Z M 222.703125 155.640625 " fill-opacity="1" fill-rule="nonzero"/></g><g clip-path="url(#4ee8f1c682)"><path fill="#ffffff" d="M 95.601562 77.433594 L 110.097656 91.8125 C 115.070312 96.722656 123.097656 96.722656 128.066406 91.8125 L 139.988281 80.011719 L 142.503906 77.375 L 212.050781 7.769531 C 214.683594 5.132812 212.828125 0.699219 209.113281 0.699219 L 184.675781 0.699219 C 176.828125 0.699219 169.28125 3.816406 163.707031 9.386719 L 119.082031 54.011719 L 104.347656 39.277344 C 98.894531 33.824219 91.527344 30.769531 83.800781 30.769531 L 49.058594 30.769531 L 95.722656 77.433594 Z M 95.601562 77.433594 " fill-opacity="1" fill-rule="nonzero"/></g><g clip-path="url(#92213827be)"><path fill="#ffffff" d="M 142.503906 140.988281 L 128.007812 126.613281 C 123.035156 121.640625 115.007812 121.640625 110.039062 126.613281 L 98.117188 138.414062 L 95.601562 141.050781 L 26.054688 210.714844 C 23.417969 213.351562 25.277344 217.785156 28.992188 217.785156 L 53.730469 217.785156 C 61.457031 217.785156 68.824219 214.726562 74.277344 209.277344 L 119.082031 164.472656 L 133.636719 179.027344 C 139.210938 184.597656 146.757812 187.710938 154.664062 187.710938 L 189.105469 187.710938 L 142.445312 141.050781 Z M 142.503906 140.988281 " fill-opacity="1" fill-rule="nonzero"/></g><g clip-path="url(#d269a24797)"><path fill="#ffffff" d="M 63.851562 109.242188 L 49.238281 123.859375 C 43.726562 129.367188 40.613281 136.855469 40.613281 144.644531 L 40.613281 179.265625 L 87.273438 132.605469 L 87.335938 132.664062 L 101.769531 118.167969 C 106.742188 113.195312 106.683594 105.109375 101.710938 100.136719 L 17.550781 16.15625 C 14.972656 13.578125 10.542969 15.375 10.542969 19.089844 L 10.542969 43.710938 C 10.542969 51.617188 13.597656 59.042969 19.226562 64.617188 Z M 63.851562 109.242188 " fill-opacity="1" fill-rule="nonzero"/></g><path fill="#ffffff" d="M 219.117188 153.988281 L 174.550781 109.242188 L 189.347656 94.386719 C 194.679688 88.996094 197.734375 81.746094 197.734375 74.140625 L 197.734375 39.21875 L 151.308594 85.878906 L 151.25 85.820312 L 137.054688 100.195312 C 132.140625 105.167969 132.140625 113.074219 136.992188 118.105469 L 151.308594 132.785156 L 151.371094 132.722656 L 220.855469 202.507812 C 223.371094 205.085938 227.742188 203.289062 227.742188 199.632812 L 227.742188 174.65625 C 227.625 166.867188 224.570312 159.5 219.117188 153.988281 Z M 219.117188 153.988281 " fill-opacity="1" fill-rule="nonzero"/><g fill="#ffffff" fill-opacity="0.451"><g transform="translate(2.607149, 263.024736)"><g><path d="M 21.8125 -7.421875 C 23.0625 -7.421875 24.273438 -7.609375 25.453125 -7.984375 C 26.640625 -8.367188 27.507812 -8.738281 28.0625 -9.09375 L 28.890625 -9.65625 L 32.390625 -2.671875 C 32.265625 -2.578125 32.097656 -2.457031 31.890625 -2.3125 C 31.691406 -2.164062 31.222656 -1.894531 30.484375 -1.5 C 29.742188 -1.113281 28.945312 -0.773438 28.09375 -0.484375 C 27.25 -0.191406 26.140625 0.0664062 24.765625 0.296875 C 23.398438 0.535156 21.992188 0.65625 20.546875 0.65625 C 17.191406 0.65625 14.015625 -0.164062 11.015625 -1.8125 C 8.015625 -3.457031 5.59375 -5.722656 3.75 -8.609375 C 1.914062 -11.492188 1 -14.613281 1 -17.96875 C 1 -20.5 1.535156 -22.925781 2.609375 -25.25 C 3.691406 -27.582031 5.128906 -29.578125 6.921875 -31.234375 C 8.710938 -32.898438 10.800781 -34.226562 13.1875 -35.21875 C 15.582031 -36.207031 18.035156 -36.703125 20.546875 -36.703125 C 22.867188 -36.703125 25.015625 -36.425781 26.984375 -35.875 C 28.953125 -35.320312 30.34375 -34.769531 31.15625 -34.21875 L 32.390625 -33.390625 L 28.890625 -26.390625 C 28.679688 -26.566406 28.375 -26.78125 27.96875 -27.03125 C 27.5625 -27.28125 26.742188 -27.609375 25.515625 -28.015625 C 24.296875 -28.421875 23.0625 -28.625 21.8125 -28.625 C 19.832031 -28.625 18.050781 -28.300781 16.46875 -27.65625 C 14.894531 -27.019531 13.648438 -26.175781 12.734375 -25.125 C 11.816406 -24.082031 11.117188 -22.953125 10.640625 -21.734375 C 10.160156 -20.523438 9.921875 -19.296875 9.921875 -18.046875 C 9.921875 -15.304688 10.945312 -12.847656 13 -10.671875 C 15.050781 -8.503906 17.988281 -7.421875 21.8125 -7.421875 Z M 21.8125 -7.421875 "/></g></g></g><g fill="#ffffff" fill-opacity="0.451"><g transform="translate(35.510032, 263.024736)"><g><path d="M 1 -18.046875 C 1 -23.265625 2.773438 -27.675781 6.328125 -31.28125 C 9.890625 -34.894531 14.175781 -36.703125 19.1875 -36.703125 C 24.226562 -36.703125 28.507812 -34.90625 32.03125 -31.3125 C 35.5625 -27.71875 37.328125 -23.296875 37.328125 -18.046875 C 37.328125 -12.773438 35.59375 -8.335938 32.125 -4.734375 C 28.65625 -1.140625 24.34375 0.65625 19.1875 0.65625 C 13.914062 0.65625 9.566406 -1.125 6.140625 -4.6875 C 2.710938 -8.257812 1 -12.710938 1 -18.046875 Z M 9.875 -18.046875 C 9.875 -16.148438 10.164062 -14.421875 10.75 -12.859375 C 11.332031 -11.304688 12.351562 -9.988281 13.8125 -8.90625 C 15.269531 -7.832031 17.0625 -7.296875 19.1875 -7.296875 C 22.25 -7.296875 24.554688 -8.34375 26.109375 -10.4375 C 27.671875 -12.539062 28.453125 -15.078125 28.453125 -18.046875 C 28.453125 -20.992188 27.65625 -23.519531 26.0625 -25.625 C 24.476562 -27.738281 22.1875 -28.796875 19.1875 -28.796875 C 16.21875 -28.796875 13.921875 -27.738281 12.296875 -25.625 C 10.679688 -23.519531 9.875 -20.992188 9.875 -18.046875 Z M 9.875 -18.046875 "/></g></g></g><g fill="#ffffff" fill-opacity="0.451"><g transform="translate(73.831177, 263.024736)"><g><path d="M 2.625 -36.0625 L 13.0625 -36.0625 C 18.070312 -36.0625 22.351562 -34.347656 25.90625 -30.921875 C 29.46875 -27.492188 31.25 -23.203125 31.25 -18.046875 C 31.25 -12.859375 29.476562 -8.550781 25.9375 -5.125 C 22.394531 -1.707031 18.101562 0 13.0625 0 L 2.625 0 Z M 10.84375 -7.34375 L 12.109375 -7.34375 C 15.109375 -7.34375 17.5625 -8.351562 19.46875 -10.375 C 21.375 -12.40625 22.34375 -14.945312 22.375 -18 C 22.375 -21.0625 21.421875 -23.613281 19.515625 -25.65625 C 17.609375 -27.695312 15.140625 -28.71875 12.109375 -28.71875 L 10.84375 -28.71875 Z M 10.84375 -7.34375 "/></g></g></g><g fill="#ffffff" fill-opacity="0.451"><g transform="translate(106.078628, 263.024736)"><g><path d="M 10.84375 -36.0625 L 10.84375 0 L 2.625 0 L 2.625 -36.0625 Z M 10.84375 -36.0625 "/></g></g></g><g fill="#ffffff" fill-opacity="0.451"><g transform="translate(119.536917, 263.024736)"><g><path d="M 36.359375 0 L 25.734375 0 L 17.21875 -12.28125 L 8.703125 0 L -1.484375 0 L 12.15625 -19.40625 L 0.78125 -36.0625 L 10.578125 -36.0625 L 17.21875 -26.21875 L 23.859375 -36.0625 L 34.09375 -36.0625 L 22.28125 -19.40625 Z M 36.359375 0 "/></g></g></g><g fill="#ffffff" fill-opacity="0.451"><g transform="translate(154.406102, 263.024736)"><g><path d="M 2.625 -36.0625 L 15.78125 -36.0625 C 19.445312 -36.0625 22.414062 -35.113281 24.6875 -33.21875 C 26.957031 -31.320312 28.09375 -28.566406 28.09375 -24.953125 C 28.09375 -21.335938 26.941406 -18.503906 24.640625 -16.453125 C 22.347656 -14.398438 19.394531 -13.375 15.78125 -13.375 L 10.84375 -13.375 L 10.84375 0 L 2.625 0 Z M 10.84375 -19.921875 L 13.15625 -19.921875 C 14.988281 -19.921875 16.492188 -20.289062 17.671875 -21.03125 C 18.859375 -21.78125 19.453125 -23 19.453125 -24.6875 C 19.453125 -26.40625 18.859375 -27.632812 17.671875 -28.375 C 16.492188 -29.125 14.988281 -29.5 13.15625 -29.5 L 10.84375 -29.5 Z M 10.84375 -19.921875 "/></g></g></g><g fill="#ffffff" fill-opacity="0.451"><g transform="translate(183.507458, 263.024736)"><g><path d="M 2.625 -36.0625 L 15.515625 -36.0625 C 18.984375 -36.0625 21.804688 -35.132812 23.984375 -33.28125 C 26.171875 -31.425781 27.265625 -28.78125 27.265625 -25.34375 C 27.265625 -22.695312 26.601562 -20.476562 25.28125 -18.6875 C 23.957031 -16.894531 22.160156 -15.632812 19.890625 -14.90625 L 32.296875 0 L 21.84375 0 L 10.84375 -14.25 L 10.84375 0 L 2.625 0 Z M 10.84375 -20.0625 L 11.796875 -20.0625 C 12.554688 -20.0625 13.195312 -20.070312 13.71875 -20.09375 C 14.25 -20.125 14.847656 -20.226562 15.515625 -20.40625 C 16.179688 -20.582031 16.71875 -20.832031 17.125 -21.15625 C 17.539062 -21.476562 17.894531 -21.941406 18.1875 -22.546875 C 18.476562 -23.160156 18.625 -23.90625 18.625 -24.78125 C 18.625 -25.65625 18.476562 -26.394531 18.1875 -27 C 17.894531 -27.613281 17.539062 -28.082031 17.125 -28.40625 C 16.71875 -28.726562 16.179688 -28.972656 15.515625 -29.140625 C 14.847656 -29.316406 14.25 -29.421875 13.71875 -29.453125 C 13.195312 -29.484375 12.554688 -29.5 11.796875 -29.5 L 10.84375 -29.5 Z M 10.84375 -20.0625 "/></g></g></g><g fill="#ffffff" fill-opacity="0.451"><g transform="translate(214.793593, 263.024736)"><g><path d="M 1 -18.046875 C 1 -23.265625 2.773438 -27.675781 6.328125 -31.28125 C 9.890625 -34.894531 14.175781 -36.703125 19.1875 -36.703125 C 24.226562 -36.703125 28.507812 -34.90625 32.03125 -31.3125 C 35.5625 -27.71875 37.328125 -23.296875 37.328125 -18.046875 C 37.328125 -12.773438 35.59375 -8.335938 32.125 -4.734375 C 28.65625 -1.140625 24.34375 0.65625 19.1875 0.65625 C 13.914062 0.65625 9.566406 -1.125 6.140625 -4.6875 C 2.710938 -8.257812 1 -12.710938 1 -18.046875 Z M 9.875 -18.046875 C 9.875 -16.148438 10.164062 -14.421875 10.75 -12.859375 C 11.332031 -11.304688 12.351562 -9.988281 13.8125 -8.90625 C 15.269531 -7.832031 17.0625 -7.296875 19.1875 -7.296875 C 22.25 -7.296875 24.554688 -8.34375 26.109375 -10.4375 C 27.671875 -12.539062 28.453125 -15.078125 28.453125 -18.046875 C 28.453125 -20.992188 27.65625 -23.519531 26.0625 -25.625 C 24.476562 -27.738281 22.1875 -28.796875 19.1875 -28.796875 C 16.21875 -28.796875 13.921875 -27.738281 12.296875 -25.625 C 10.679688 -23.519531 9.875 -20.992188 9.875 -18.046875 Z M 9.875 -18.046875 "/></g></g></g><g fill="#ffffff" fill-opacity="1"><g transform="translate(1.226028, 261.191923)"><g><path d="M 21.8125 -7.421875 C 23.0625 -7.421875 24.273438 -7.609375 25.453125 -7.984375 C 26.640625 -8.367188 27.507812 -8.738281 28.0625 -9.09375 L 28.890625 -9.65625 L 32.390625 -2.671875 C 32.265625 -2.578125 32.097656 -2.457031 31.890625 -2.3125 C 31.691406 -2.164062 31.222656 -1.894531 30.484375 -1.5 C 29.742188 -1.113281 28.945312 -0.773438 28.09375 -0.484375 C 27.25 -0.191406 26.140625 0.0664062 24.765625 0.296875 C 23.398438 0.535156 21.992188 0.65625 20.546875 0.65625 C 17.191406 0.65625 14.015625 -0.164062 11.015625 -1.8125 C 8.015625 -3.457031 5.59375 -5.722656 3.75 -8.609375 C 1.914062 -11.492188 1 -14.613281 1 -17.96875 C 1 -20.5 1.535156 -22.925781 2.609375 -25.25 C 3.691406 -27.582031 5.128906 -29.578125 6.921875 -31.234375 C 8.710938 -32.898438 10.800781 -34.226562 13.1875 -35.21875 C 15.582031 -36.207031 18.035156 -36.703125 20.546875 -36.703125 C 22.867188 -36.703125 25.015625 -36.425781 26.984375 -35.875 C 28.953125 -35.320312 30.34375 -34.769531 31.15625 -34.21875 L 32.390625 -33.390625 L 28.890625 -26.390625 C 28.679688 -26.566406 28.375 -26.78125 27.96875 -27.03125 C 27.5625 -27.28125 26.742188 -27.609375 25.515625 -28.015625 C 24.296875 -28.421875 23.0625 -28.625 21.8125 -28.625 C 19.832031 -28.625 18.050781 -28.300781 16.46875 -27.65625 C 14.894531 -27.019531 13.648438 -26.175781 12.734375 -25.125 C 11.816406 -24.082031 11.117188 -22.953125 10.640625 -21.734375 C 10.160156 -20.523438 9.921875 -19.296875 9.921875 -18.046875 C 9.921875 -15.304688 10.945312 -12.847656 13 -10.671875 C 15.050781 -8.503906 17.988281 -7.421875 21.8125 -7.421875 Z M 21.8125 -7.421875 "/></g></g></g><g fill="#ffffff" fill-opacity="1"><g transform="translate(34.128912, 261.191923)"><g><path d="M 1 -18.046875 C 1 -23.265625 2.773438 -27.675781 6.328125 -31.28125 C 9.890625 -34.894531 14.175781 -36.703125 19.1875 -36.703125 C 24.226562 -36.703125 28.507812 -34.90625 32.03125 -31.3125 C 35.5625 -27.71875 37.328125 -23.296875 37.328125 -18.046875 C 37.328125 -12.773438 35.59375 -8.335938 32.125 -4.734375 C 28.65625 -1.140625 24.34375 0.65625 19.1875 0.65625 C 13.914062 0.65625 9.566406 -1.125 6.140625 -4.6875 C 2.710938 -8.257812 1 -12.710938 1 -18.046875 Z M 9.875 -18.046875 C 9.875 -16.148438 10.164062 -14.421875 10.75 -12.859375 C 11.332031 -11.304688 12.351562 -9.988281 13.8125 -8.90625 C 15.269531 -7.832031 17.0625 -7.296875 19.1875 -7.296875 C 22.25 -7.296875 24.554688 -8.34375 26.109375 -10.4375 C 27.671875 -12.539062 28.453125 -15.078125 28.453125 -18.046875 C 28.453125 -20.992188 27.65625 -23.519531 26.0625 -25.625 C 24.476562 -27.738281 22.1875 -28.796875 19.1875 -28.796875 C 16.21875 -28.796875 13.921875 -27.738281 12.296875 -25.625 C 10.679688 -23.519531 9.875 -20.992188 9.875 -18.046875 Z M 9.875 -18.046875 "/></g></g></g><g fill="#ffffff" fill-opacity="1"><g transform="translate(72.450057, 261.191923)"><g><path d="M 2.625 -36.0625 L 13.0625 -36.0625 C 18.070312 -36.0625 22.351562 -34.347656 25.90625 -30.921875 C 29.46875 -27.492188 31.25 -23.203125 31.25 -18.046875 C 31.25 -12.859375 29.476562 -8.550781 25.9375 -5.125 C 22.394531 -1.707031 18.101562 0 13.0625 0 L 2.625 0 Z M 10.84375 -7.34375 L 12.109375 -7.34375 C 15.109375 -7.34375 17.5625 -8.351562 19.46875 -10.375 C 21.375 -12.40625 22.34375 -14.945312 22.375 -18 C 22.375 -21.0625 21.421875 -23.613281 19.515625 -25.65625 C 17.609375 -27.695312 15.140625 -28.71875 12.109375 -28.71875 L 10.84375 -28.71875 Z M 10.84375 -7.34375 "/></g></g></g><g fill="#ffffff" fill-opacity="1"><g transform="translate(104.697508, 261.191923)"><g><path d="M 10.84375 -36.0625 L 10.84375 0 L 2.625 0 L 2.625 -36.0625 Z M 10.84375 -36.0625 "/></g></g></g><g fill="#ffffff" fill-opacity="1"><g transform="translate(118.155796, 261.191923)"><g><path d="M 36.359375 0 L 25.734375 0 L 17.21875 -12.28125 L 8.703125 0 L -1.484375 0 L 12.15625 -19.40625 L 0.78125 -36.0625 L 10.578125 -36.0625 L 17.21875 -26.21875 L 23.859375 -36.0625 L 34.09375 -36.0625 L 22.28125 -19.40625 Z M 36.359375 0 "/></g></g></g><g fill="#ffffff" fill-opacity="1"><g transform="translate(153.024981, 261.191923)"><g><path d="M 2.625 -36.0625 L 15.78125 -36.0625 C 19.445312 -36.0625 22.414062 -35.113281 24.6875 -33.21875 C 26.957031 -31.320312 28.09375 -28.566406 28.09375 -24.953125 C 28.09375 -21.335938 26.941406 -18.503906 24.640625 -16.453125 C 22.347656 -14.398438 19.394531 -13.375 15.78125 -13.375 L 10.84375 -13.375 L 10.84375 0 L 2.625 0 Z M 10.84375 -19.921875 L 13.15625 -19.921875 C 14.988281 -19.921875 16.492188 -20.289062 17.671875 -21.03125 C 18.859375 -21.78125 19.453125 -23 19.453125 -24.6875 C 19.453125 -26.40625 18.859375 -27.632812 17.671875 -28.375 C 16.492188 -29.125 14.988281 -29.5 13.15625 -29.5 L 10.84375 -29.5 Z M 10.84375 -19.921875 "/></g></g></g><g fill="#ffffff" fill-opacity="1"><g transform="translate(182.126337, 261.191923)"><g><path d="M 2.625 -36.0625 L 15.515625 -36.0625 C 18.984375 -36.0625 21.804688 -35.132812 23.984375 -33.28125 C 26.171875 -31.425781 27.265625 -28.78125 27.265625 -25.34375 C 27.265625 -22.695312 26.601562 -20.476562 25.28125 -18.6875 C 23.957031 -16.894531 22.160156 -15.632812 19.890625 -14.90625 L 32.296875 0 L 21.84375 0 L 10.84375 -14.25 L 10.84375 0 L 2.625 0 Z M 10.84375 -20.0625 L 11.796875 -20.0625 C 12.554688 -20.0625 13.195312 -20.070312 13.71875 -20.09375 C 14.25 -20.125 14.847656 -20.226562 15.515625 -20.40625 C 16.179688 -20.582031 16.71875 -20.832031 17.125 -21.15625 C 17.539062 -21.476562 17.894531 -21.941406 18.1875 -22.546875 C 18.476562 -23.160156 18.625 -23.90625 18.625 -24.78125 C 18.625 -25.65625 18.476562 -26.394531 18.1875 -27 C 17.894531 -27.613281 17.539062 -28.082031 17.125 -28.40625 C 16.71875 -28.726562 16.179688 -28.972656 15.515625 -29.140625 C 14.847656 -29.316406 14.25 -29.421875 13.71875 -29.453125 C 13.195312 -29.484375 12.554688 -29.5 11.796875 -29.5 L 10.84375 -29.5 Z M 10.84375 -20.0625 "/></g></g></g><g fill="#ffffff" fill-opacity="1"><g transform="translate(213.412472, 261.191923)"><g><path d="M 1 -18.046875 C 1 -23.265625 2.773438 -27.675781 6.328125 -31.28125 C 9.890625 -34.894531 14.175781 -36.703125 19.1875 -36.703125 C 24.226562 -36.703125 28.507812 -34.90625 32.03125 -31.3125 C 35.5625 -27.71875 37.328125 -23.296875 37.328125 -18.046875 C 37.328125 -12.773438 35.59375 -8.335938 32.125 -4.734375 C 28.65625 -1.140625 24.34375 0.65625 19.1875 0.65625 C 13.914062 0.65625 9.566406 -1.125 6.140625 -4.6875 C 2.710938 -8.257812 1 -12.710938 1 -18.046875 Z M 9.875 -18.046875 C 9.875 -16.148438 10.164062 -14.421875 10.75 -12.859375 C 11.332031 -11.304688 12.351562 -9.988281 13.8125 -8.90625 C 15.269531 -7.832031 17.0625 -7.296875 19.1875 -7.296875 C 22.25 -7.296875 24.554688 -8.34375 26.109375 -10.4375 C 27.671875 -12.539062 28.453125 -15.078125 28.453125 -18.046875 C 28.453125 -20.992188 27.65625 -23.519531 26.0625 -25.625 C 24.476562 -27.738281 22.1875 -28.796875 19.1875 -28.796875 C 16.21875 -28.796875 13.921875 -27.738281 12.296875 -25.625 C 10.679688 -23.519531 9.875 -20.992188 9.875 -18.046875 Z M 9.875 -18.046875 "/></g></g></g><g clip-path="url(#0036c7cf1d)"><g transform="matrix(1, 0, 0, 1, 59, 264)"><g clip-path="url(#1c8636abcd)"><g fill="#ffffff" fill-opacity="1"><g transform="translate(0.0376504, 18.415471)"><g><path d="M 5.3125 0 L 3.4375 0 L 0.65625 -12.140625 L 2.0625 -12.140625 L 4.359375 -2.109375 L 4.5625 -2.109375 L 7.28125 -12.140625 L 8.609375 -12.140625 L 11.328125 -2.109375 L 11.546875 -2.109375 L 13.828125 -12.140625 L 15.203125 -12.140625 L 12.421875 0 L 10.546875 0 L 8.015625 -9.203125 L 7.84375 -9.203125 Z M 5.3125 0 "/></g></g></g><g fill="#ffffff" fill-opacity="1"><g transform="translate(15.629095, 18.415471)"><g><path d="M 8.734375 -4.265625 L 2.4375 -4.265625 C 2.476562 -3.148438 2.742188 -2.332031 3.234375 -1.8125 C 3.734375 -1.289062 4.414062 -1.03125 5.28125 -1.03125 C 5.925781 -1.03125 6.445312 -1.144531 6.84375 -1.375 C 7.25 -1.613281 7.566406 -1.984375 7.796875 -2.484375 L 7.96875 -2.484375 L 8.84375 -1.953125 C 8.582031 -1.296875 8.160156 -0.773438 7.578125 -0.390625 C 6.992188 -0.015625 6.226562 0.171875 5.28125 0.171875 C 4.394531 0.171875 3.628906 0 2.984375 -0.34375 C 2.347656 -0.695312 1.859375 -1.226562 1.515625 -1.9375 C 1.171875 -2.644531 1 -3.523438 1 -4.578125 C 1 -5.617188 1.179688 -6.492188 1.546875 -7.203125 C 1.910156 -7.921875 2.40625 -8.457031 3.03125 -8.8125 C 3.664062 -9.164062 4.382812 -9.34375 5.1875 -9.34375 C 6.363281 -9.34375 7.28125 -9.007812 7.9375 -8.34375 C 8.601562 -7.6875 8.9375 -6.707031 8.9375 -5.40625 C 8.9375 -4.894531 8.925781 -4.550781 8.90625 -4.375 Z M 7.609375 -5.40625 C 7.578125 -6.375 7.359375 -7.078125 6.953125 -7.515625 C 6.546875 -7.960938 5.957031 -8.1875 5.1875 -8.1875 C 4.382812 -8.1875 3.753906 -7.960938 3.296875 -7.515625 C 2.835938 -7.078125 2.5625 -6.375 2.46875 -5.40625 Z M 7.609375 -5.40625 "/></g></g></g><g fill="#ffffff" fill-opacity="1"><g transform="translate(25.402844, 18.415471)"><g/></g></g><g fill="#ffffff" fill-opacity="1"><g transform="translate(29.574971, 18.415471)"><g><path d="M 6.71875 0.171875 C 5.65625 0.171875 4.707031 -0.0664062 3.875 -0.546875 C 3.039062 -1.035156 2.390625 -1.75 1.921875 -2.6875 C 1.453125 -3.632812 1.21875 -4.765625 1.21875 -6.078125 C 1.21875 -7.390625 1.453125 -8.515625 1.921875 -9.453125 C 2.390625 -10.390625 3.039062 -11.101562 3.875 -11.59375 C 4.707031 -12.082031 5.65625 -12.328125 6.71875 -12.328125 C 7.851562 -12.328125 8.796875 -12.109375 9.546875 -11.671875 C 10.296875 -11.242188 10.835938 -10.597656 11.171875 -9.734375 L 10.265625 -9.125 L 10.046875 -9.125 C 9.710938 -9.820312 9.28125 -10.316406 8.75 -10.609375 C 8.21875 -10.898438 7.539062 -11.046875 6.71875 -11.046875 C 5.945312 -11.046875 5.265625 -10.875 4.671875 -10.53125 C 4.078125 -10.1875 3.601562 -9.644531 3.25 -8.90625 C 2.90625 -8.164062 2.734375 -7.222656 2.734375 -6.078125 C 2.734375 -4.921875 2.90625 -3.972656 3.25 -3.234375 C 3.601562 -2.503906 4.078125 -1.96875 4.671875 -1.625 C 5.265625 -1.28125 5.945312 -1.109375 6.71875 -1.109375 C 7.59375 -1.109375 8.3125 -1.304688 8.875 -1.703125 C 9.4375 -2.097656 9.851562 -2.738281 10.125 -3.625 L 10.328125 -3.625 L 11.28125 -3.15625 C 10.988281 -2.082031 10.453125 -1.257812 9.671875 -0.6875 C 8.898438 -0.113281 7.914062 0.171875 6.71875 0.171875 Z M 6.71875 0.171875 "/></g></g></g><g fill="#ffffff" fill-opacity="1"><g transform="translate(41.492961, 18.415471)"><g><path d="M 5.265625 0.171875 C 4.398438 0.171875 3.644531 -0.0078125 3 -0.375 C 2.363281 -0.738281 1.867188 -1.273438 1.515625 -1.984375 C 1.171875 -2.703125 1 -3.566406 1 -4.578125 C 1 -5.585938 1.171875 -6.445312 1.515625 -7.15625 C 1.867188 -7.875 2.363281 -8.414062 3 -8.78125 C 3.644531 -9.15625 4.398438 -9.34375 5.265625 -9.34375 C 6.128906 -9.34375 6.878906 -9.15625 7.515625 -8.78125 C 8.148438 -8.414062 8.640625 -7.875 8.984375 -7.15625 C 9.335938 -6.445312 9.515625 -5.585938 9.515625 -4.578125 C 9.515625 -3.566406 9.335938 -2.703125 8.984375 -1.984375 C 8.640625 -1.273438 8.148438 -0.738281 7.515625 -0.375 C 6.878906 -0.0078125 6.128906 0.171875 5.265625 0.171875 Z M 5.265625 -1.03125 C 6.171875 -1.03125 6.863281 -1.316406 7.34375 -1.890625 C 7.832031 -2.472656 8.078125 -3.367188 8.078125 -4.578125 C 8.078125 -5.785156 7.832031 -6.675781 7.34375 -7.25 C 6.863281 -7.832031 6.171875 -8.125 5.265625 -8.125 C 4.347656 -8.125 3.644531 -7.832031 3.15625 -7.25 C 2.664062 -6.675781 2.421875 -5.785156 2.421875 -4.578125 C 2.421875 -3.367188 2.664062 -2.472656 3.15625 -1.890625 C 3.644531 -1.316406 4.347656 -1.03125 5.265625 -1.03125 Z M 5.265625 -1.03125 "/></g></g></g><g fill="#ffffff" fill-opacity="1"><g transform="translate(52.014702, 18.415471)"><g><path d="M 4.75 0.171875 C 4.007812 0.171875 3.359375 0 2.796875 -0.34375 C 2.234375 -0.695312 1.789062 -1.226562 1.46875 -1.9375 C 1.15625 -2.644531 1 -3.523438 1 -4.578125 C 1 -5.617188 1.164062 -6.492188 1.5 -7.203125 C 1.832031 -7.921875 2.289062 -8.457031 2.875 -8.8125 C 3.457031 -9.164062 4.132812 -9.34375 4.90625 -9.34375 C 5.519531 -9.34375 6.066406 -9.226562 6.546875 -9 C 7.035156 -8.769531 7.457031 -8.390625 7.8125 -7.859375 L 7.984375 -7.890625 L 7.984375 -12.84375 L 9.34375 -12.84375 L 9.34375 0 L 7.984375 0 L 7.984375 -1.34375 L 7.8125 -1.375 C 7.507812 -0.914062 7.101562 -0.539062 6.59375 -0.25 C 6.082031 0.03125 5.46875 0.171875 4.75 0.171875 Z M 5.171875 -1.03125 C 6.023438 -1.03125 6.707031 -1.320312 7.21875 -1.90625 C 7.726562 -2.5 7.984375 -3.390625 7.984375 -4.578125 C 7.984375 -5.773438 7.726562 -6.664062 7.21875 -7.25 C 6.707031 -7.832031 6.023438 -8.125 5.171875 -8.125 C 4.296875 -8.125 3.617188 -7.835938 3.140625 -7.265625 C 2.660156 -6.703125 2.421875 -5.804688 2.421875 -4.578125 C 2.421875 -2.210938 3.335938 -1.03125 5.171875 -1.03125 Z M 5.171875 -1.03125 "/></g></g></g><g fill="#ffffff" fill-opacity="1"><g transform="translate(62.960309, 18.415471)"><g><path d="M 8.734375 -4.265625 L 2.4375 -4.265625 C 2.476562 -3.148438 2.742188 -2.332031 3.234375 -1.8125 C 3.734375 -1.289062 4.414062 -1.03125 5.28125 -1.03125 C 5.925781 -1.03125 6.445312 -1.144531 6.84375 -1.375 C 7.25 -1.613281 7.566406 -1.984375 7.796875 -2.484375 L 7.96875 -2.484375 L 8.84375 -1.953125 C 8.582031 -1.296875 8.160156 -0.773438 7.578125 -0.390625 C 6.992188 -0.015625 6.226562 0.171875 5.28125 0.171875 C 4.394531 0.171875 3.628906 0 2.984375 -0.34375 C 2.347656 -0.695312 1.859375 -1.226562 1.515625 -1.9375 C 1.171875 -2.644531 1 -3.523438 1 -4.578125 C 1 -5.617188 1.179688 -6.492188 1.546875 -7.203125 C 1.910156 -7.921875 2.40625 -8.457031 3.03125 -8.8125 C 3.664062 -9.164062 4.382812 -9.34375 5.1875 -9.34375 C 6.363281 -9.34375 7.28125 -9.007812 7.9375 -8.34375 C 8.601562 -7.6875 8.9375 -6.707031 8.9375 -5.40625 C 8.9375 -4.894531 8.925781 -4.550781 8.90625 -4.375 Z M 7.609375 -5.40625 C 7.578125 -6.375 7.359375 -7.078125 6.953125 -7.515625 C 6.546875 -7.960938 5.957031 -8.1875 5.1875 -8.1875 C 4.382812 -8.1875 3.753906 -7.960938 3.296875 -7.515625 C 2.835938 -7.078125 2.5625 -6.375 2.46875 -5.40625 Z M 7.609375 -5.40625 "/></g></g></g><g fill="#ffffff" fill-opacity="1"><g transform="translate(72.734058, 18.415471)"><g/></g></g><g fill="#ffffff" fill-opacity="1"><g transform="translate(76.906186, 18.415471)"><g><path d="M 5.9375 0 L 4.515625 0 L 4.515625 -4.765625 L 0.3125 -12.140625 L 1.875 -12.140625 L 5.15625 -6.453125 L 5.359375 -6.453125 L 8.609375 -12.140625 L 10.140625 -12.140625 L 5.9375 -4.765625 Z M 5.9375 0 "/></g></g></g><g fill="#ffffff" fill-opacity="1"><g transform="translate(86.172872, 18.415471)"><g><path d="M 5.265625 0.171875 C 4.398438 0.171875 3.644531 -0.0078125 3 -0.375 C 2.363281 -0.738281 1.867188 -1.273438 1.515625 -1.984375 C 1.171875 -2.703125 1 -3.566406 1 -4.578125 C 1 -5.585938 1.171875 -6.445312 1.515625 -7.15625 C 1.867188 -7.875 2.363281 -8.414062 3 -8.78125 C 3.644531 -9.15625 4.398438 -9.34375 5.265625 -9.34375 C 6.128906 -9.34375 6.878906 -9.15625 7.515625 -8.78125 C 8.148438 -8.414062 8.640625 -7.875 8.984375 -7.15625 C 9.335938 -6.445312 9.515625 -5.585938 9.515625 -4.578125 C 9.515625 -3.566406 9.335938 -2.703125 8.984375 -1.984375 C 8.640625 -1.273438 8.148438 -0.738281 7.515625 -0.375 C 6.878906 -0.0078125 6.128906 0.171875 5.265625 0.171875 Z M 5.265625 -1.03125 C 6.171875 -1.03125 6.863281 -1.316406 7.34375 -1.890625 C 7.832031 -2.472656 8.078125 -3.367188 8.078125 -4.578125 C 8.078125 -5.785156 7.832031 -6.675781 7.34375 -7.25 C 6.863281 -7.832031 6.171875 -8.125 5.265625 -8.125 C 4.347656 -8.125 3.644531 -7.832031 3.15625 -7.25 C 2.664062 -6.675781 2.421875 -5.785156 2.421875 -4.578125 C 2.421875 -3.367188 2.664062 -2.472656 3.15625 -1.890625 C 3.644531 -1.316406 4.347656 -1.03125 5.265625 -1.03125 Z M 5.265625 -1.03125 "/></g></g></g><g fill="#ffffff" fill-opacity="1"><g transform="translate(96.694612, 18.415471)"><g><path d="M 4.53125 0.171875 C 3.488281 0.171875 2.710938 -0.0976562 2.203125 -0.640625 C 1.703125 -1.191406 1.453125 -2 1.453125 -3.0625 L 1.453125 -9.171875 L 2.8125 -9.171875 L 2.8125 -3.09375 C 2.8125 -1.695312 3.460938 -1 4.765625 -1 C 5.597656 -1 6.253906 -1.269531 6.734375 -1.8125 C 7.222656 -2.363281 7.46875 -3.25 7.46875 -4.46875 L 7.46875 -9.171875 L 8.8125 -9.171875 L 8.8125 0 L 7.53125 0 L 7.53125 -1.4375 L 7.359375 -1.484375 C 7.046875 -0.921875 6.664062 -0.503906 6.21875 -0.234375 C 5.78125 0.0351562 5.21875 0.171875 4.53125 0.171875 Z M 4.53125 0.171875 "/></g></g></g><g fill="#ffffff" fill-opacity="1"><g transform="translate(107.108315, 18.415471)"><g><path d="M 1.59375 0 L 1.59375 -9.171875 L 2.890625 -9.171875 L 2.890625 -7.734375 L 3.0625 -7.6875 C 3.488281 -8.726562 4.289062 -9.25 5.46875 -9.25 C 6.09375 -9.25 6.5625 -9.132812 6.875 -8.90625 L 6.515625 -7.765625 L 6.359375 -7.734375 C 6.015625 -7.898438 5.632812 -7.984375 5.21875 -7.984375 C 4.488281 -7.984375 3.925781 -7.707031 3.53125 -7.15625 C 3.144531 -6.613281 2.953125 -5.726562 2.953125 -4.5 L 2.953125 0 Z M 1.59375 0 "/></g></g></g><g fill="#ffffff" fill-opacity="1"><g transform="translate(114.189297, 18.415471)"><g/></g></g><g fill="#ffffff" fill-opacity="1"><g transform="translate(118.361424, 18.415471)"><g><path d="M 6.390625 0.171875 C 5.367188 0.171875 4.46875 -0.0546875 3.6875 -0.515625 C 2.914062 -0.984375 2.3125 -1.6875 1.875 -2.625 C 1.4375 -3.5625 1.21875 -4.710938 1.21875 -6.078125 C 1.21875 -7.441406 1.445312 -8.585938 1.90625 -9.515625 C 2.375 -10.453125 3.023438 -11.15625 3.859375 -11.625 C 4.691406 -12.09375 5.648438 -12.328125 6.734375 -12.328125 C 7.898438 -12.328125 8.851562 -12.113281 9.59375 -11.6875 C 10.34375 -11.269531 10.875 -10.648438 11.1875 -9.828125 L 10.265625 -9.265625 L 10.046875 -9.265625 C 9.734375 -9.898438 9.304688 -10.351562 8.765625 -10.625 C 8.234375 -10.90625 7.554688 -11.046875 6.734375 -11.046875 C 4.066406 -11.046875 2.734375 -9.390625 2.734375 -6.078125 C 2.734375 -4.347656 3.066406 -3.085938 3.734375 -2.296875 C 4.410156 -1.503906 5.351562 -1.109375 6.5625 -1.109375 C 7.664062 -1.109375 8.492188 -1.359375 9.046875 -1.859375 C 9.597656 -2.367188 9.875 -3.164062 9.875 -4.25 L 9.875 -5.328125 L 6.421875 -5.328125 L 6.421875 -6.46875 L 11.265625 -6.46875 L 11.265625 0 L 9.9375 0 L 9.9375 -1.625 L 9.765625 -1.671875 C 9.441406 -1.046875 8.992188 -0.582031 8.421875 -0.28125 C 7.847656 0.0195312 7.171875 0.171875 6.390625 0.171875 Z M 6.390625 0.171875 "/></g></g></g><g fill="#ffffff" fill-opacity="1"><g transform="translate(130.994161, 18.415471)"><g><path d="M 1.59375 0 L 1.59375 -9.171875 L 2.890625 -9.171875 L 2.890625 -7.734375 L 3.0625 -7.6875 C 3.488281 -8.726562 4.289062 -9.25 5.46875 -9.25 C 6.09375 -9.25 6.5625 -9.132812 6.875 -8.90625 L 6.515625 -7.765625 L 6.359375 -7.734375 C 6.015625 -7.898438 5.632812 -7.984375 5.21875 -7.984375 C 4.488281 -7.984375 3.925781 -7.707031 3.53125 -7.15625 C 3.144531 -6.613281 2.953125 -5.726562 2.953125 -4.5 L 2.953125 0 Z M 1.59375 0 "/></g></g></g><g fill="#ffffff" fill-opacity="1"><g transform="translate(137.834105, 18.415471)"><g><path d="M 5.265625 0.171875 C 4.398438 0.171875 3.644531 -0.0078125 3 -0.375 C 2.363281 -0.738281 1.867188 -1.273438 1.515625 -1.984375 C 1.171875 -2.703125 1 -3.566406 1 -4.578125 C 1 -5.585938 1.171875 -6.445312 1.515625 -7.15625 C 1.867188 -7.875 2.363281 -8.414062 3 -8.78125 C 3.644531 -9.15625 4.398438 -9.34375 5.265625 -9.34375 C 6.128906 -9.34375 6.878906 -9.15625 7.515625 -8.78125 C 8.148438 -8.414062 8.640625 -7.875 8.984375 -7.15625 C 9.335938 -6.445312 9.515625 -5.585938 9.515625 -4.578125 C 9.515625 -3.566406 9.335938 -2.703125 8.984375 -1.984375 C 8.640625 -1.273438 8.148438 -0.738281 7.515625 -0.375 C 6.878906 -0.0078125 6.128906 0.171875 5.265625 0.171875 Z M 5.265625 -1.03125 C 6.171875 -1.03125 6.863281 -1.316406 7.34375 -1.890625 C 7.832031 -2.472656 8.078125 -3.367188 8.078125 -4.578125 C 8.078125 -5.785156 7.832031 -6.675781 7.34375 -7.25 C 6.863281 -7.832031 6.171875 -8.125 5.265625 -8.125 C 4.347656 -8.125 3.644531 -7.832031 3.15625 -7.25 C 2.664062 -6.675781 2.421875 -5.785156 2.421875 -4.578125 C 2.421875 -3.367188 2.664062 -2.472656 3.15625 -1.890625 C 3.644531 -1.316406 4.347656 -1.03125 5.265625 -1.03125 Z M 5.265625 -1.03125 "/></g></g></g><g fill="#ffffff" fill-opacity="1"><g transform="translate(148.289357, 18.415471)"><g><path d="M 4.546875 0 L 2.828125 0 L 0.59375 -9.171875 L 1.921875 -9.171875 L 3.65625 -1.578125 L 3.84375 -1.578125 L 5.96875 -9.171875 L 7.390625 -9.171875 L 9.59375 -1.578125 L 9.765625 -1.578125 L 11.46875 -9.171875 L 12.765625 -9.171875 L 10.546875 0 L 8.828125 0 L 6.734375 -7.109375 L 6.5625 -7.109375 Z M 4.546875 0 "/></g></g></g><g fill="#ffffff" fill-opacity="1"><g transform="translate(161.761513, 18.415471)"><g><path d="M 6.203125 -1.453125 L 6.625 -0.484375 C 6.414062 -0.265625 6.132812 -0.101562 5.78125 0 C 5.425781 0.113281 5.046875 0.171875 4.640625 0.171875 C 2.890625 0.171875 2.015625 -0.710938 2.015625 -2.484375 L 2.015625 -8.0625 L 0.421875 -8.0625 L 0.421875 -9.171875 L 2.015625 -9.171875 L 2.015625 -11.109375 L 3.359375 -11.328125 L 3.359375 -9.171875 L 6.3125 -9.171875 L 6.3125 -8.0625 L 3.359375 -8.0625 L 3.359375 -2.609375 C 3.359375 -1.554688 3.816406 -1.03125 4.734375 -1.03125 C 5.234375 -1.03125 5.664062 -1.171875 6.03125 -1.453125 Z M 6.203125 -1.453125 "/></g></g></g><g fill="#ffffff" fill-opacity="1"><g transform="translate(168.742762, 18.415471)"><g><path d="M 1.59375 0 L 1.59375 -12.84375 L 2.953125 -12.84375 L 2.953125 -7.859375 L 3.125 -7.828125 C 3.78125 -8.835938 4.722656 -9.34375 5.953125 -9.34375 C 7.054688 -9.34375 7.851562 -9.0625 8.34375 -8.5 C 8.84375 -7.9375 9.09375 -7.070312 9.09375 -5.90625 L 9.09375 0 L 7.75 0 L 7.75 -5.859375 C 7.75 -6.421875 7.675781 -6.867188 7.53125 -7.203125 C 7.382812 -7.535156 7.164062 -7.773438 6.875 -7.921875 C 6.582031 -8.078125 6.191406 -8.15625 5.703125 -8.15625 C 4.878906 -8.15625 4.210938 -7.882812 3.703125 -7.34375 C 3.203125 -6.8125 2.953125 -5.929688 2.953125 -4.703125 L 2.953125 0 Z M 1.59375 0 "/></g></g></g><g fill="#ffffff" fill-opacity="1"><g transform="translate(179.297746, 18.415471)"><g><path d="M 2.234375 0.078125 C 1.921875 0.078125 1.671875 -0.0078125 1.484375 -0.1875 C 1.304688 -0.363281 1.21875 -0.597656 1.21875 -0.890625 C 1.21875 -1.179688 1.304688 -1.414062 1.484375 -1.59375 C 1.671875 -1.78125 1.921875 -1.875 2.234375 -1.875 C 2.554688 -1.875 2.804688 -1.785156 2.984375 -1.609375 C 3.171875 -1.429688 3.265625 -1.195312 3.265625 -0.90625 C 3.265625 -0.613281 3.171875 -0.375 2.984375 -0.1875 C 2.796875 -0.0078125 2.546875 0.078125 2.234375 0.078125 Z M 2.234375 0.078125 "/></g></g></g><g fill="#ffffff" fill-opacity="1"><g transform="translate(183.777387, 18.415471)"><g><path d="M 2.234375 0.078125 C 1.921875 0.078125 1.671875 -0.0078125 1.484375 -0.1875 C 1.304688 -0.363281 1.21875 -0.597656 1.21875 -0.890625 C 1.21875 -1.179688 1.304688 -1.414062 1.484375 -1.59375 C 1.671875 -1.78125 1.921875 -1.875 2.234375 -1.875 C 2.554688 -1.875 2.804688 -1.785156 2.984375 -1.609375 C 3.171875 -1.429688 3.265625 -1.195312 3.265625 -0.90625 C 3.265625 -0.613281 3.171875 -0.375 2.984375 -0.1875 C 2.796875 -0.0078125 2.546875 0.078125 2.234375 0.078125 Z M 2.234375 0.078125 "/></g></g></g><g fill="#ffffff" fill-opacity="1"><g transform="translate(188.257028, 18.415471)"><g><path d="M 2.234375 0.078125 C 1.921875 0.078125 1.671875 -0.0078125 1.484375 -0.1875 C 1.304688 -0.363281 1.21875 -0.597656 1.21875 -0.890625 C 1.21875 -1.179688 1.304688 -1.414062 1.484375 -1.59375 C 1.671875 -1.78125 1.921875 -1.875 2.234375 -1.875 C 2.554688 -1.875 2.804688 -1.785156 2.984375 -1.609375 C 3.171875 -1.429688 3.265625 -1.195312 3.265625 -0.90625 C 3.265625 -0.613281 3.171875 -0.375 2.984375 -0.1875 C 2.796875 -0.0078125 2.546875 0.078125 2.234375 0.078125 Z M 2.234375 0.078125 "/></g></g></g></g></g></g></g></g></svg>