<svg xmlns="http://www.w3.org/2000/svg" xmlns:xlink="http://www.w3.org/1999/xlink" width="500" zoomAndPan="magnify" viewBox="0 0 375 374.999991" height="500" preserveAspectRatio="xMidYMid meet" version="1.0"><defs><g/><clipPath id="d8b8452ded"><path d="M 21 1.261719 L 100 1.261719 L 100 47 L 21 47 Z M 21 1.261719 " clip-rule="nonzero"/></clipPath><clipPath id="ed19e49bd4"><path d="M 9 59 L 88 59 L 88 104.429688 L 9 104.429688 Z M 9 59 " clip-rule="nonzero"/></clipPath><clipPath id="fc7c009439"><path d="M 2.777344 8 L 49 8 L 49 87 L 2.777344 87 Z M 2.777344 8 " clip-rule="nonzero"/></clipPath><clipPath id="1aef1798c2"><path d="M 61 19 L 106.429688 19 L 106.429688 98 L 61 98 Z M 61 19 " clip-rule="nonzero"/></clipPath><clipPath id="8b0a1ac85f"><path d="M 19 0.476562 L 98 0.476562 L 98 46 L 19 46 Z M 19 0.476562 " clip-rule="nonzero"/></clipPath><clipPath id="fef2d9b229"><path d="M 8 58 L 87 58 L 87 103.644531 L 8 103.644531 Z M 8 58 " clip-rule="nonzero"/></clipPath><clipPath id="ab6b9eef8c"><path d="M 1.074219 7 L 47 7 L 47 86 L 1.074219 86 Z M 1.074219 7 " clip-rule="nonzero"/></clipPath><clipPath id="e497066b12"><path d="M 59 18 L 104.722656 18 L 104.722656 98 L 59 98 Z M 59 18 " clip-rule="nonzero"/></clipPath><clipPath id="1e1dda301c"><path d="M 97 27 L 348.71875 27 L 348.71875 82 L 97 82 Z M 97 27 " clip-rule="nonzero"/></clipPath><clipPath id="7c8e1b4c50"><rect x="0" width="252" y="0" height="55"/></clipPath><clipPath id="7843d1db74"><path d="M 0.0390625 5 L 16 5 L 16 18 L 0.0390625 18 Z M 0.0390625 5 " clip-rule="nonzero"/></clipPath><clipPath id="768979b4bd"><rect x="0" width="192" y="0" height="24"/></clipPath><clipPath id="06cba2208e"><rect x="0" width="349" y="0" height="105"/></clipPath></defs><g transform="matrix(1, 0, 0, 1, 12, 135)"><g clip-path="url(#06cba2208e)"><g clip-path="url(#d8b8452ded)"><path fill="#b4b4b4" d="M 43.398438 37.761719 L 50.292969 44.601562 C 52.65625 46.9375 56.476562 46.9375 58.839844 44.601562 L 64.511719 38.988281 L 65.707031 37.734375 L 98.789062 4.625 C 100.042969 3.371094 99.160156 1.261719 97.390625 1.261719 L 85.765625 1.261719 C 82.035156 1.261719 78.445312 2.742188 75.792969 5.394531 L 54.566406 26.621094 L 47.558594 19.613281 C 44.964844 17.019531 41.460938 15.566406 37.785156 15.566406 L 21.257812 15.566406 L 43.453125 37.761719 Z M 43.398438 37.761719 " fill-opacity="1" fill-rule="nonzero"/></g><g clip-path="url(#ed19e49bd4)"><path fill="#b4b4b4" d="M 65.707031 67.992188 L 58.8125 61.152344 C 56.449219 58.789062 52.628906 58.789062 50.265625 61.152344 L 44.59375 66.765625 L 43.398438 68.019531 L 10.316406 101.15625 C 9.0625 102.410156 9.949219 104.519531 11.714844 104.519531 L 23.480469 104.519531 C 27.15625 104.519531 30.660156 103.066406 33.253906 100.472656 L 54.566406 79.160156 L 61.492188 86.085938 C 64.140625 88.734375 67.730469 90.214844 71.492188 90.214844 L 87.875 90.214844 L 65.679688 68.019531 Z M 65.707031 67.992188 " fill-opacity="1" fill-rule="nonzero"/></g><g clip-path="url(#fc7c009439)"><path fill="#545454" d="M 28.296875 52.890625 L 21.34375 59.84375 C 18.722656 62.464844 17.242188 66.027344 17.242188 69.730469 L 17.242188 86.199219 L 39.4375 64.003906 L 39.464844 64.03125 L 46.332031 57.136719 C 48.699219 54.773438 48.667969 50.925781 46.304688 48.558594 L 6.273438 8.613281 C 5.046875 7.386719 2.9375 8.242188 2.9375 10.007812 L 2.9375 21.71875 C 2.9375 25.480469 4.390625 29.015625 7.070312 31.664062 Z M 28.296875 52.890625 " fill-opacity="1" fill-rule="nonzero"/></g><g clip-path="url(#1aef1798c2)"><path fill="#545454" d="M 102.148438 74.175781 L 80.953125 52.890625 L 87.988281 45.824219 C 90.523438 43.261719 91.976562 39.8125 91.976562 36.195312 L 91.976562 19.582031 L 69.894531 41.777344 L 69.867188 41.75 L 63.113281 48.589844 C 60.777344 50.953125 60.777344 54.714844 63.085938 57.109375 L 69.894531 64.089844 L 69.925781 64.058594 L 102.976562 97.253906 C 104.171875 98.480469 106.253906 97.625 106.253906 95.886719 L 106.253906 84.003906 C 106.195312 80.300781 104.742188 76.796875 102.148438 74.175781 Z M 102.148438 74.175781 " fill-opacity="1" fill-rule="nonzero"/></g><g clip-path="url(#8b0a1ac85f)"><path fill="#000000" d="M 41.691406 36.976562 L 48.589844 43.8125 C 50.953125 46.148438 54.769531 46.148438 57.136719 43.8125 L 62.804688 38.199219 L 64.003906 36.945312 L 97.082031 3.839844 C 98.335938 2.585938 97.453125 0.476562 95.6875 0.476562 L 84.0625 0.476562 C 80.328125 0.476562 76.738281 1.957031 74.089844 4.609375 L 52.863281 25.835938 L 45.851562 18.824219 C 43.261719 16.234375 39.753906 14.78125 36.078125 14.78125 L 19.554688 14.78125 L 41.75 36.976562 Z M 41.691406 36.976562 " fill-opacity="1" fill-rule="nonzero"/></g><g clip-path="url(#fef2d9b229)"><path fill="#000000" d="M 64.003906 67.207031 L 57.105469 60.367188 C 54.742188 58.003906 50.925781 58.003906 48.558594 60.367188 L 42.890625 65.980469 L 41.691406 67.234375 L 8.613281 100.371094 C 7.359375 101.625 8.242188 103.734375 10.007812 103.734375 L 21.777344 103.734375 C 25.453125 103.734375 28.957031 102.28125 31.550781 99.6875 L 52.863281 78.375 L 59.785156 85.300781 C 62.433594 87.949219 66.027344 89.429688 69.785156 89.429688 L 86.171875 89.429688 L 63.972656 67.234375 Z M 64.003906 67.207031 " fill-opacity="1" fill-rule="nonzero"/></g><g clip-path="url(#ab6b9eef8c)"><path fill="#000000" d="M 26.589844 52.105469 L 19.640625 59.058594 C 17.019531 61.679688 15.535156 65.238281 15.535156 68.945312 L 15.535156 85.414062 L 37.730469 63.21875 L 37.761719 63.246094 L 44.628906 56.351562 C 46.992188 53.984375 46.964844 50.140625 44.597656 47.773438 L 4.566406 7.828125 C 3.339844 6.601562 1.234375 7.457031 1.234375 9.222656 L 1.234375 20.933594 C 1.234375 24.695312 2.6875 28.226562 5.363281 30.878906 Z M 26.589844 52.105469 " fill-opacity="1" fill-rule="nonzero"/></g><g clip-path="url(#e497066b12)"><path fill="#000000" d="M 100.445312 73.390625 L 79.246094 52.105469 L 86.285156 45.039062 C 88.820312 42.472656 90.273438 39.027344 90.273438 35.410156 L 90.273438 18.796875 L 68.191406 40.992188 L 68.164062 40.964844 L 61.410156 47.800781 C 59.074219 50.167969 59.074219 53.929688 61.382812 56.320312 L 68.191406 63.300781 L 68.21875 63.273438 L 101.269531 96.46875 C 102.46875 97.695312 104.546875 96.839844 104.546875 95.101562 L 104.546875 83.21875 C 104.492188 79.515625 103.039062 76.011719 100.445312 73.390625 Z M 100.445312 73.390625 " fill-opacity="1" fill-rule="nonzero"/></g><g clip-path="url(#1e1dda301c)"><g transform="matrix(1, 0, 0, 1, 97, 27)"><g clip-path="url(#7c8e1b4c50)"><g fill="#545454" fill-opacity="0.451"><g transform="translate(2.430801, 39.770625)"><g><path d="M 21.546875 -7.34375 C 22.785156 -7.34375 23.984375 -7.53125 25.140625 -7.90625 C 26.304688 -8.28125 27.164062 -8.640625 27.71875 -8.984375 L 28.53125 -9.546875 L 31.984375 -2.640625 C 31.867188 -2.546875 31.710938 -2.425781 31.515625 -2.28125 C 31.316406 -2.144531 30.847656 -1.878906 30.109375 -1.484375 C 29.378906 -1.097656 28.59375 -0.757812 27.75 -0.46875 C 26.914062 -0.1875 25.820312 0.0664062 24.46875 0.296875 C 23.125 0.523438 21.734375 0.640625 20.296875 0.640625 C 16.984375 0.640625 13.84375 -0.171875 10.875 -1.796875 C 7.914062 -3.421875 5.53125 -5.65625 3.71875 -8.5 C 1.90625 -11.351562 1 -14.4375 1 -17.75 C 1 -20.25 1.53125 -22.648438 2.59375 -24.953125 C 3.65625 -27.253906 5.070312 -29.222656 6.84375 -30.859375 C 8.613281 -32.503906 10.675781 -33.816406 13.03125 -34.796875 C 15.394531 -35.773438 17.816406 -36.265625 20.296875 -36.265625 C 22.597656 -36.265625 24.71875 -35.988281 26.65625 -35.4375 C 28.601562 -34.894531 29.976562 -34.347656 30.78125 -33.796875 L 31.984375 -32.984375 L 28.53125 -26.078125 C 28.332031 -26.242188 28.03125 -26.445312 27.625 -26.6875 C 27.226562 -26.9375 26.425781 -27.265625 25.21875 -27.671875 C 24.007812 -28.078125 22.785156 -28.28125 21.546875 -28.28125 C 19.585938 -28.28125 17.828125 -27.960938 16.265625 -27.328125 C 14.710938 -26.691406 13.484375 -25.851562 12.578125 -24.8125 C 11.671875 -23.78125 10.976562 -22.664062 10.5 -21.46875 C 10.03125 -20.28125 9.796875 -19.066406 9.796875 -17.828125 C 9.796875 -15.117188 10.8125 -12.691406 12.84375 -10.546875 C 14.875 -8.410156 17.773438 -7.34375 21.546875 -7.34375 Z M 21.546875 -7.34375 "/></g></g></g><g fill="#545454" fill-opacity="0.451"><g transform="translate(34.928818, 39.770625)"><g><path d="M 1 -17.828125 C 1 -22.984375 2.753906 -27.34375 6.265625 -30.90625 C 9.773438 -34.476562 14.003906 -36.265625 18.953125 -36.265625 C 23.929688 -36.265625 28.160156 -34.484375 31.640625 -30.921875 C 35.128906 -27.367188 36.875 -23.003906 36.875 -17.828125 C 36.875 -12.617188 35.160156 -8.238281 31.734375 -4.6875 C 28.304688 -1.132812 24.046875 0.640625 18.953125 0.640625 C 13.742188 0.640625 9.445312 -1.117188 6.0625 -4.640625 C 2.6875 -8.160156 1 -12.554688 1 -17.828125 Z M 9.75 -17.828125 C 9.75 -15.960938 10.035156 -14.257812 10.609375 -12.71875 C 11.191406 -11.175781 12.203125 -9.867188 13.640625 -8.796875 C 15.078125 -7.734375 16.847656 -7.203125 18.953125 -7.203125 C 21.972656 -7.203125 24.253906 -8.238281 25.796875 -10.3125 C 27.335938 -12.382812 28.109375 -14.890625 28.109375 -17.828125 C 28.109375 -20.734375 27.320312 -23.226562 25.75 -25.3125 C 24.1875 -27.40625 21.921875 -28.453125 18.953125 -28.453125 C 16.015625 -28.453125 13.742188 -27.40625 12.140625 -25.3125 C 10.546875 -23.226562 9.75 -20.734375 9.75 -17.828125 Z M 9.75 -17.828125 "/></g></g></g><g fill="#545454" fill-opacity="0.451"><g transform="translate(72.778425, 39.770625)"><g><path d="M 2.59375 -35.609375 L 12.90625 -35.609375 C 17.851562 -35.609375 22.082031 -33.914062 25.59375 -30.53125 C 29.113281 -27.15625 30.875 -22.921875 30.875 -17.828125 C 30.875 -12.703125 29.125 -8.445312 25.625 -5.0625 C 22.125 -1.6875 17.882812 0 12.90625 0 L 2.59375 0 Z M 10.703125 -7.25 L 11.953125 -7.25 C 14.921875 -7.25 17.347656 -8.25 19.234375 -10.25 C 21.117188 -12.25 22.078125 -14.757812 22.109375 -17.78125 C 22.109375 -20.800781 21.164062 -23.316406 19.28125 -25.328125 C 17.394531 -27.347656 14.953125 -28.359375 11.953125 -28.359375 L 10.703125 -28.359375 Z M 10.703125 -7.25 "/></g></g></g><g fill="#545454" fill-opacity="0.451"><g transform="translate(104.629074, 39.770625)"><g><path d="M 10.703125 -35.609375 L 10.703125 0 L 2.59375 0 L 2.59375 -35.609375 Z M 10.703125 -35.609375 "/></g></g></g><g fill="#545454" fill-opacity="0.451"><g transform="translate(117.92176, 39.770625)"><g><path d="M 35.921875 0 L 25.421875 0 L 17.015625 -12.125 L 8.59375 0 L -1.46875 0 L 12 -19.171875 L 0.78125 -35.609375 L 10.453125 -35.609375 L 17.015625 -25.90625 L 23.578125 -35.609375 L 33.671875 -35.609375 L 22.015625 -19.171875 Z M 35.921875 0 "/></g></g></g><g fill="#545454" fill-opacity="0.451"><g transform="translate(152.361883, 39.770625)"><g><path d="M 2.59375 -35.609375 L 15.578125 -35.609375 C 19.210938 -35.609375 22.148438 -34.671875 24.390625 -32.796875 C 26.640625 -30.929688 27.765625 -28.210938 27.765625 -24.640625 C 27.765625 -21.078125 26.625 -18.28125 24.34375 -16.25 C 22.070312 -14.21875 19.148438 -13.203125 15.578125 -13.203125 L 10.703125 -13.203125 L 10.703125 0 L 2.59375 0 Z M 10.703125 -19.6875 L 13 -19.6875 C 14.8125 -19.6875 16.300781 -20.050781 17.46875 -20.78125 C 18.632812 -21.519531 19.21875 -22.722656 19.21875 -24.390625 C 19.21875 -26.085938 18.632812 -27.300781 17.46875 -28.03125 C 16.300781 -28.769531 14.8125 -29.140625 13 -29.140625 L 10.703125 -29.140625 Z M 10.703125 -19.6875 "/></g></g></g><g fill="#545454" fill-opacity="0.451"><g transform="translate(181.10515, 39.770625)"><g><path d="M 2.59375 -35.609375 L 15.328125 -35.609375 C 18.753906 -35.609375 21.546875 -34.695312 23.703125 -32.875 C 25.859375 -31.050781 26.9375 -28.441406 26.9375 -25.046875 C 26.9375 -22.421875 26.28125 -20.222656 24.96875 -18.453125 C 23.664062 -16.679688 21.890625 -15.4375 19.640625 -14.71875 L 31.90625 0 L 21.59375 0 L 10.703125 -14.078125 L 10.703125 0 L 2.59375 0 Z M 10.703125 -19.8125 L 11.65625 -19.8125 C 12.40625 -19.8125 13.035156 -19.828125 13.546875 -19.859375 C 14.066406 -19.890625 14.65625 -19.988281 15.3125 -20.15625 C 15.976562 -20.332031 16.515625 -20.578125 16.921875 -20.890625 C 17.328125 -21.210938 17.671875 -21.675781 17.953125 -22.28125 C 18.242188 -22.882812 18.390625 -23.617188 18.390625 -24.484375 C 18.390625 -25.347656 18.242188 -26.082031 17.953125 -26.6875 C 17.671875 -27.289062 17.328125 -27.75 16.921875 -28.0625 C 16.515625 -28.375 15.976562 -28.613281 15.3125 -28.78125 C 14.65625 -28.957031 14.066406 -29.0625 13.546875 -29.09375 C 13.035156 -29.125 12.40625 -29.140625 11.65625 -29.140625 L 10.703125 -29.140625 Z M 10.703125 -19.8125 "/></g></g></g><g fill="#545454" fill-opacity="0.451"><g transform="translate(212.006312, 39.770625)"><g><path d="M 1 -17.828125 C 1 -22.984375 2.753906 -27.34375 6.265625 -30.90625 C 9.773438 -34.476562 14.003906 -36.265625 18.953125 -36.265625 C 23.929688 -36.265625 28.160156 -34.484375 31.640625 -30.921875 C 35.128906 -27.367188 36.875 -23.003906 36.875 -17.828125 C 36.875 -12.617188 35.160156 -8.238281 31.734375 -4.6875 C 28.304688 -1.132812 24.046875 0.640625 18.953125 0.640625 C 13.742188 0.640625 9.445312 -1.117188 6.0625 -4.640625 C 2.6875 -8.160156 1 -12.554688 1 -17.828125 Z M 9.75 -17.828125 C 9.75 -15.960938 10.035156 -14.257812 10.609375 -12.71875 C 11.191406 -11.175781 12.203125 -9.867188 13.640625 -8.796875 C 15.078125 -7.734375 16.847656 -7.203125 18.953125 -7.203125 C 21.972656 -7.203125 24.253906 -8.238281 25.796875 -10.3125 C 27.335938 -12.382812 28.109375 -14.890625 28.109375 -17.828125 C 28.109375 -20.734375 27.320312 -23.226562 25.75 -25.3125 C 24.1875 -27.40625 21.921875 -28.453125 18.953125 -28.453125 C 16.015625 -28.453125 13.742188 -27.40625 12.140625 -25.3125 C 10.546875 -23.226562 9.75 -20.734375 9.75 -17.828125 Z M 9.75 -17.828125 "/></g></g></g><g fill="#000000" fill-opacity="1"><g transform="translate(1.066673, 37.960371)"><g><path d="M 21.546875 -7.34375 C 22.785156 -7.34375 23.984375 -7.53125 25.140625 -7.90625 C 26.304688 -8.28125 27.164062 -8.640625 27.71875 -8.984375 L 28.53125 -9.546875 L 31.984375 -2.640625 C 31.867188 -2.546875 31.710938 -2.425781 31.515625 -2.28125 C 31.316406 -2.144531 30.847656 -1.878906 30.109375 -1.484375 C 29.378906 -1.097656 28.59375 -0.757812 27.75 -0.46875 C 26.914062 -0.1875 25.820312 0.0664062 24.46875 0.296875 C 23.125 0.523438 21.734375 0.640625 20.296875 0.640625 C 16.984375 0.640625 13.84375 -0.171875 10.875 -1.796875 C 7.914062 -3.421875 5.53125 -5.65625 3.71875 -8.5 C 1.90625 -11.351562 1 -14.4375 1 -17.75 C 1 -20.25 1.53125 -22.648438 2.59375 -24.953125 C 3.65625 -27.253906 5.070312 -29.222656 6.84375 -30.859375 C 8.613281 -32.503906 10.675781 -33.816406 13.03125 -34.796875 C 15.394531 -35.773438 17.816406 -36.265625 20.296875 -36.265625 C 22.597656 -36.265625 24.71875 -35.988281 26.65625 -35.4375 C 28.601562 -34.894531 29.976562 -34.347656 30.78125 -33.796875 L 31.984375 -32.984375 L 28.53125 -26.078125 C 28.332031 -26.242188 28.03125 -26.445312 27.625 -26.6875 C 27.226562 -26.9375 26.425781 -27.265625 25.21875 -27.671875 C 24.007812 -28.078125 22.785156 -28.28125 21.546875 -28.28125 C 19.585938 -28.28125 17.828125 -27.960938 16.265625 -27.328125 C 14.710938 -26.691406 13.484375 -25.851562 12.578125 -24.8125 C 11.671875 -23.78125 10.976562 -22.664062 10.5 -21.46875 C 10.03125 -20.28125 9.796875 -19.066406 9.796875 -17.828125 C 9.796875 -15.117188 10.8125 -12.691406 12.84375 -10.546875 C 14.875 -8.410156 17.773438 -7.34375 21.546875 -7.34375 Z M 21.546875 -7.34375 "/></g></g></g><g fill="#000000" fill-opacity="1"><g transform="translate(33.56469, 37.960371)"><g><path d="M 1 -17.828125 C 1 -22.984375 2.753906 -27.34375 6.265625 -30.90625 C 9.773438 -34.476562 14.003906 -36.265625 18.953125 -36.265625 C 23.929688 -36.265625 28.160156 -34.484375 31.640625 -30.921875 C 35.128906 -27.367188 36.875 -23.003906 36.875 -17.828125 C 36.875 -12.617188 35.160156 -8.238281 31.734375 -4.6875 C 28.304688 -1.132812 24.046875 0.640625 18.953125 0.640625 C 13.742188 0.640625 9.445312 -1.117188 6.0625 -4.640625 C 2.6875 -8.160156 1 -12.554688 1 -17.828125 Z M 9.75 -17.828125 C 9.75 -15.960938 10.035156 -14.257812 10.609375 -12.71875 C 11.191406 -11.175781 12.203125 -9.867188 13.640625 -8.796875 C 15.078125 -7.734375 16.847656 -7.203125 18.953125 -7.203125 C 21.972656 -7.203125 24.253906 -8.238281 25.796875 -10.3125 C 27.335938 -12.382812 28.109375 -14.890625 28.109375 -17.828125 C 28.109375 -20.734375 27.320312 -23.226562 25.75 -25.3125 C 24.1875 -27.40625 21.921875 -28.453125 18.953125 -28.453125 C 16.015625 -28.453125 13.742188 -27.40625 12.140625 -25.3125 C 10.546875 -23.226562 9.75 -20.734375 9.75 -17.828125 Z M 9.75 -17.828125 "/></g></g></g><g fill="#000000" fill-opacity="1"><g transform="translate(71.414297, 37.960371)"><g><path d="M 2.59375 -35.609375 L 12.90625 -35.609375 C 17.851562 -35.609375 22.082031 -33.914062 25.59375 -30.53125 C 29.113281 -27.15625 30.875 -22.921875 30.875 -17.828125 C 30.875 -12.703125 29.125 -8.445312 25.625 -5.0625 C 22.125 -1.6875 17.882812 0 12.90625 0 L 2.59375 0 Z M 10.703125 -7.25 L 11.953125 -7.25 C 14.921875 -7.25 17.347656 -8.25 19.234375 -10.25 C 21.117188 -12.25 22.078125 -14.757812 22.109375 -17.78125 C 22.109375 -20.800781 21.164062 -23.316406 19.28125 -25.328125 C 17.394531 -27.347656 14.953125 -28.359375 11.953125 -28.359375 L 10.703125 -28.359375 Z M 10.703125 -7.25 "/></g></g></g><g fill="#000000" fill-opacity="1"><g transform="translate(103.264946, 37.960371)"><g><path d="M 10.703125 -35.609375 L 10.703125 0 L 2.59375 0 L 2.59375 -35.609375 Z M 10.703125 -35.609375 "/></g></g></g><g fill="#000000" fill-opacity="1"><g transform="translate(116.557632, 37.960371)"><g><path d="M 35.921875 0 L 25.421875 0 L 17.015625 -12.125 L 8.59375 0 L -1.46875 0 L 12 -19.171875 L 0.78125 -35.609375 L 10.453125 -35.609375 L 17.015625 -25.90625 L 23.578125 -35.609375 L 33.671875 -35.609375 L 22.015625 -19.171875 Z M 35.921875 0 "/></g></g></g><g fill="#000000" fill-opacity="1"><g transform="translate(150.997755, 37.960371)"><g><path d="M 2.59375 -35.609375 L 15.578125 -35.609375 C 19.210938 -35.609375 22.148438 -34.671875 24.390625 -32.796875 C 26.640625 -30.929688 27.765625 -28.210938 27.765625 -24.640625 C 27.765625 -21.078125 26.625 -18.28125 24.34375 -16.25 C 22.070312 -14.21875 19.148438 -13.203125 15.578125 -13.203125 L 10.703125 -13.203125 L 10.703125 0 L 2.59375 0 Z M 10.703125 -19.6875 L 13 -19.6875 C 14.8125 -19.6875 16.300781 -20.050781 17.46875 -20.78125 C 18.632812 -21.519531 19.21875 -22.722656 19.21875 -24.390625 C 19.21875 -26.085938 18.632812 -27.300781 17.46875 -28.03125 C 16.300781 -28.769531 14.8125 -29.140625 13 -29.140625 L 10.703125 -29.140625 Z M 10.703125 -19.6875 "/></g></g></g><g fill="#000000" fill-opacity="1"><g transform="translate(179.741022, 37.960371)"><g><path d="M 2.59375 -35.609375 L 15.328125 -35.609375 C 18.753906 -35.609375 21.546875 -34.695312 23.703125 -32.875 C 25.859375 -31.050781 26.9375 -28.441406 26.9375 -25.046875 C 26.9375 -22.421875 26.28125 -20.222656 24.96875 -18.453125 C 23.664062 -16.679688 21.890625 -15.4375 19.640625 -14.71875 L 31.90625 0 L 21.59375 0 L 10.703125 -14.078125 L 10.703125 0 L 2.59375 0 Z M 10.703125 -19.8125 L 11.65625 -19.8125 C 12.40625 -19.8125 13.035156 -19.828125 13.546875 -19.859375 C 14.066406 -19.890625 14.65625 -19.988281 15.3125 -20.15625 C 15.976562 -20.332031 16.515625 -20.578125 16.921875 -20.890625 C 17.328125 -21.210938 17.671875 -21.675781 17.953125 -22.28125 C 18.242188 -22.882812 18.390625 -23.617188 18.390625 -24.484375 C 18.390625 -25.347656 18.242188 -26.082031 17.953125 -26.6875 C 17.671875 -27.289062 17.328125 -27.75 16.921875 -28.0625 C 16.515625 -28.375 15.976562 -28.613281 15.3125 -28.78125 C 14.65625 -28.957031 14.066406 -29.0625 13.546875 -29.09375 C 13.035156 -29.125 12.40625 -29.140625 11.65625 -29.140625 L 10.703125 -29.140625 Z M 10.703125 -19.8125 "/></g></g></g><g fill="#000000" fill-opacity="1"><g transform="translate(210.642184, 37.960371)"><g><path d="M 1 -17.828125 C 1 -22.984375 2.753906 -27.34375 6.265625 -30.90625 C 9.773438 -34.476562 14.003906 -36.265625 18.953125 -36.265625 C 23.929688 -36.265625 28.160156 -34.484375 31.640625 -30.921875 C 35.128906 -27.367188 36.875 -23.003906 36.875 -17.828125 C 36.875 -12.617188 35.160156 -8.238281 31.734375 -4.6875 C 28.304688 -1.132812 24.046875 0.640625 18.953125 0.640625 C 13.742188 0.640625 9.445312 -1.117188 6.0625 -4.640625 C 2.6875 -8.160156 1 -12.554688 1 -17.828125 Z M 9.75 -17.828125 C 9.75 -15.960938 10.035156 -14.257812 10.609375 -12.71875 C 11.191406 -11.175781 12.203125 -9.867188 13.640625 -8.796875 C 15.078125 -7.734375 16.847656 -7.203125 18.953125 -7.203125 C 21.972656 -7.203125 24.253906 -8.238281 25.796875 -10.3125 C 27.335938 -12.382812 28.109375 -14.890625 28.109375 -17.828125 C 28.109375 -20.734375 27.320312 -23.226562 25.75 -25.3125 C 24.1875 -27.40625 21.921875 -28.453125 18.953125 -28.453125 C 16.015625 -28.453125 13.742188 -27.40625 12.140625 -25.3125 C 10.546875 -23.226562 9.75 -20.734375 9.75 -17.828125 Z M 9.75 -17.828125 "/></g></g></g></g></g></g><g transform="matrix(1, 0, 0, 1, 155, 68)"><g clip-path="url(#768979b4bd)"><g clip-path="url(#7843d1db74)"><g fill="#000000" fill-opacity="1"><g transform="translate(0.166937, 17.92276)"><g><path d="M 5.25 0 L 3.40625 0 L 0.65625 -12 L 2.046875 -12 L 4.296875 -2.078125 L 4.5 -2.078125 L 7.203125 -12 L 8.5 -12 L 11.203125 -2.078125 L 11.40625 -2.078125 L 13.671875 -12 L 15.015625 -12 L 12.28125 0 L 10.421875 0 L 7.921875 -9.09375 L 7.75 -9.09375 Z M 5.25 0 "/></g></g></g></g><g fill="#000000" fill-opacity="1"><g transform="translate(15.56653, 17.92276)"><g><path d="M 8.625 -4.21875 L 2.40625 -4.21875 C 2.445312 -3.113281 2.710938 -2.304688 3.203125 -1.796875 C 3.691406 -1.285156 4.363281 -1.03125 5.21875 -1.03125 C 5.863281 -1.03125 6.378906 -1.144531 6.765625 -1.375 C 7.160156 -1.601562 7.472656 -1.960938 7.703125 -2.453125 L 7.875 -2.453125 L 8.75 -1.9375 C 8.476562 -1.28125 8.050781 -0.765625 7.46875 -0.390625 C 6.894531 -0.015625 6.144531 0.171875 5.21875 0.171875 C 4.34375 0.171875 3.585938 0 2.953125 -0.34375 C 2.328125 -0.6875 1.84375 -1.207031 1.5 -1.90625 C 1.164062 -2.613281 1 -3.484375 1 -4.515625 C 1 -5.546875 1.175781 -6.414062 1.53125 -7.125 C 1.882812 -7.832031 2.375 -8.359375 3 -8.703125 C 3.625 -9.054688 4.332031 -9.234375 5.125 -9.234375 C 6.289062 -9.234375 7.195312 -8.90625 7.84375 -8.25 C 8.5 -7.59375 8.828125 -6.625 8.828125 -5.34375 C 8.828125 -4.832031 8.816406 -4.488281 8.796875 -4.3125 Z M 7.515625 -5.34375 C 7.492188 -6.300781 7.28125 -7 6.875 -7.4375 C 6.46875 -7.875 5.882812 -8.09375 5.125 -8.09375 C 4.332031 -8.09375 3.707031 -7.867188 3.25 -7.421875 C 2.800781 -6.984375 2.53125 -6.289062 2.4375 -5.34375 Z M 7.515625 -5.34375 "/></g></g></g><g fill="#000000" fill-opacity="1"><g transform="translate(25.220015, 17.92276)"><g/></g></g><g fill="#000000" fill-opacity="1"><g transform="translate(29.340805, 17.92276)"><g><path d="M 6.640625 0.171875 C 5.585938 0.171875 4.648438 -0.0664062 3.828125 -0.546875 C 3.003906 -1.023438 2.359375 -1.726562 1.890625 -2.65625 C 1.429688 -3.59375 1.203125 -4.707031 1.203125 -6 C 1.203125 -7.300781 1.429688 -8.414062 1.890625 -9.34375 C 2.359375 -10.269531 3.003906 -10.972656 3.828125 -11.453125 C 4.648438 -11.929688 5.585938 -12.171875 6.640625 -12.171875 C 7.753906 -12.171875 8.679688 -11.957031 9.421875 -11.53125 C 10.171875 -11.113281 10.710938 -10.476562 11.046875 -9.625 L 10.140625 -9.015625 L 9.9375 -9.015625 C 9.601562 -9.703125 9.171875 -10.1875 8.640625 -10.46875 C 8.117188 -10.757812 7.453125 -10.90625 6.640625 -10.90625 C 5.878906 -10.90625 5.207031 -10.738281 4.625 -10.40625 C 4.039062 -10.070312 3.570312 -9.535156 3.21875 -8.796875 C 2.875 -8.066406 2.703125 -7.132812 2.703125 -6 C 2.703125 -4.863281 2.875 -3.929688 3.21875 -3.203125 C 3.570312 -2.472656 4.039062 -1.9375 4.625 -1.59375 C 5.207031 -1.257812 5.878906 -1.09375 6.640625 -1.09375 C 7.503906 -1.09375 8.210938 -1.289062 8.765625 -1.6875 C 9.316406 -2.082031 9.726562 -2.71875 10 -3.59375 L 10.203125 -3.59375 L 11.140625 -3.125 C 10.859375 -2.0625 10.332031 -1.242188 9.5625 -0.671875 C 8.800781 -0.109375 7.828125 0.171875 6.640625 0.171875 Z M 6.640625 0.171875 "/></g></g></g><g fill="#000000" fill-opacity="1"><g transform="translate(41.112145, 17.92276)"><g><path d="M 5.203125 0.171875 C 4.347656 0.171875 3.601562 -0.00390625 2.96875 -0.359375 C 2.332031 -0.722656 1.84375 -1.253906 1.5 -1.953125 C 1.164062 -2.660156 1 -3.515625 1 -4.515625 C 1 -5.523438 1.164062 -6.378906 1.5 -7.078125 C 1.84375 -7.785156 2.332031 -8.320312 2.96875 -8.6875 C 3.601562 -9.050781 4.347656 -9.234375 5.203125 -9.234375 C 6.054688 -9.234375 6.796875 -9.050781 7.421875 -8.6875 C 8.054688 -8.320312 8.546875 -7.785156 8.890625 -7.078125 C 9.234375 -6.378906 9.40625 -5.523438 9.40625 -4.515625 C 9.40625 -3.515625 9.234375 -2.660156 8.890625 -1.953125 C 8.546875 -1.253906 8.054688 -0.722656 7.421875 -0.359375 C 6.796875 -0.00390625 6.054688 0.171875 5.203125 0.171875 Z M 5.203125 -1.03125 C 6.097656 -1.03125 6.785156 -1.3125 7.265625 -1.875 C 7.742188 -2.445312 7.984375 -3.328125 7.984375 -4.515625 C 7.984375 -5.722656 7.742188 -6.609375 7.265625 -7.171875 C 6.785156 -7.742188 6.097656 -8.03125 5.203125 -8.03125 C 4.296875 -8.03125 3.597656 -7.742188 3.109375 -7.171875 C 2.628906 -6.597656 2.390625 -5.710938 2.390625 -4.515625 C 2.390625 -3.328125 2.628906 -2.445312 3.109375 -1.875 C 3.597656 -1.3125 4.296875 -1.03125 5.203125 -1.03125 Z M 5.203125 -1.03125 "/></g></g></g><g fill="#000000" fill-opacity="1"><g transform="translate(51.504416, 17.92276)"><g><path d="M 4.703125 0.171875 C 3.972656 0.171875 3.328125 0 2.765625 -0.34375 C 2.210938 -0.695312 1.78125 -1.222656 1.46875 -1.921875 C 1.15625 -2.617188 1 -3.484375 1 -4.515625 C 1 -5.554688 1.160156 -6.425781 1.484375 -7.125 C 1.816406 -7.832031 2.269531 -8.359375 2.84375 -8.703125 C 3.414062 -9.054688 4.085938 -9.234375 4.859375 -9.234375 C 5.453125 -9.234375 5.988281 -9.117188 6.46875 -8.890625 C 6.957031 -8.660156 7.375 -8.285156 7.71875 -7.765625 L 7.890625 -7.796875 L 7.890625 -12.6875 L 9.234375 -12.6875 L 9.234375 0 L 7.890625 0 L 7.890625 -1.328125 L 7.71875 -1.359375 C 7.414062 -0.910156 7.007812 -0.539062 6.5 -0.25 C 6 0.03125 5.398438 0.171875 4.703125 0.171875 Z M 5.109375 -1.03125 C 5.953125 -1.03125 6.625 -1.316406 7.125 -1.890625 C 7.632812 -2.472656 7.890625 -3.347656 7.890625 -4.515625 C 7.890625 -5.703125 7.632812 -6.582031 7.125 -7.15625 C 6.625 -7.738281 5.953125 -8.03125 5.109375 -8.03125 C 4.242188 -8.03125 3.570312 -7.75 3.09375 -7.1875 C 2.625 -6.625 2.390625 -5.734375 2.390625 -4.515625 C 2.390625 -2.191406 3.296875 -1.03125 5.109375 -1.03125 Z M 5.109375 -1.03125 "/></g></g></g><g fill="#000000" fill-opacity="1"><g transform="translate(62.31534, 17.92276)"><g><path d="M 8.625 -4.21875 L 2.40625 -4.21875 C 2.445312 -3.113281 2.710938 -2.304688 3.203125 -1.796875 C 3.691406 -1.285156 4.363281 -1.03125 5.21875 -1.03125 C 5.863281 -1.03125 6.378906 -1.144531 6.765625 -1.375 C 7.160156 -1.601562 7.472656 -1.960938 7.703125 -2.453125 L 7.875 -2.453125 L 8.75 -1.9375 C 8.476562 -1.28125 8.050781 -0.765625 7.46875 -0.390625 C 6.894531 -0.015625 6.144531 0.171875 5.21875 0.171875 C 4.34375 0.171875 3.585938 0 2.953125 -0.34375 C 2.328125 -0.6875 1.84375 -1.207031 1.5 -1.90625 C 1.164062 -2.613281 1 -3.484375 1 -4.515625 C 1 -5.546875 1.175781 -6.414062 1.53125 -7.125 C 1.882812 -7.832031 2.375 -8.359375 3 -8.703125 C 3.625 -9.054688 4.332031 -9.234375 5.125 -9.234375 C 6.289062 -9.234375 7.195312 -8.90625 7.84375 -8.25 C 8.5 -7.59375 8.828125 -6.625 8.828125 -5.34375 C 8.828125 -4.832031 8.816406 -4.488281 8.796875 -4.3125 Z M 7.515625 -5.34375 C 7.492188 -6.300781 7.28125 -7 6.875 -7.4375 C 6.46875 -7.875 5.882812 -8.09375 5.125 -8.09375 C 4.332031 -8.09375 3.707031 -7.867188 3.25 -7.421875 C 2.800781 -6.984375 2.53125 -6.289062 2.4375 -5.34375 Z M 7.515625 -5.34375 "/></g></g></g><g fill="#000000" fill-opacity="1"><g transform="translate(71.968824, 17.92276)"><g/></g></g><g fill="#000000" fill-opacity="1"><g transform="translate(76.089614, 17.92276)"><g><path d="M 5.859375 0 L 4.453125 0 L 4.453125 -4.71875 L 0.3125 -12 L 1.859375 -12 L 5.09375 -6.375 L 5.296875 -6.375 L 8.5 -12 L 10.015625 -12 L 5.859375 -4.71875 Z M 5.859375 0 "/></g></g></g><g fill="#000000" fill-opacity="1"><g transform="translate(85.242275, 17.92276)"><g><path d="M 5.203125 0.171875 C 4.347656 0.171875 3.601562 -0.00390625 2.96875 -0.359375 C 2.332031 -0.722656 1.84375 -1.253906 1.5 -1.953125 C 1.164062 -2.660156 1 -3.515625 1 -4.515625 C 1 -5.523438 1.164062 -6.378906 1.5 -7.078125 C 1.84375 -7.785156 2.332031 -8.320312 2.96875 -8.6875 C 3.601562 -9.050781 4.347656 -9.234375 5.203125 -9.234375 C 6.054688 -9.234375 6.796875 -9.050781 7.421875 -8.6875 C 8.054688 -8.320312 8.546875 -7.785156 8.890625 -7.078125 C 9.234375 -6.378906 9.40625 -5.523438 9.40625 -4.515625 C 9.40625 -3.515625 9.234375 -2.660156 8.890625 -1.953125 C 8.546875 -1.253906 8.054688 -0.722656 7.421875 -0.359375 C 6.796875 -0.00390625 6.054688 0.171875 5.203125 0.171875 Z M 5.203125 -1.03125 C 6.097656 -1.03125 6.785156 -1.3125 7.265625 -1.875 C 7.742188 -2.445312 7.984375 -3.328125 7.984375 -4.515625 C 7.984375 -5.722656 7.742188 -6.609375 7.265625 -7.171875 C 6.785156 -7.742188 6.097656 -8.03125 5.203125 -8.03125 C 4.296875 -8.03125 3.597656 -7.742188 3.109375 -7.171875 C 2.628906 -6.597656 2.390625 -5.710938 2.390625 -4.515625 C 2.390625 -3.328125 2.628906 -2.445312 3.109375 -1.875 C 3.597656 -1.3125 4.296875 -1.03125 5.203125 -1.03125 Z M 5.203125 -1.03125 "/></g></g></g><g fill="#000000" fill-opacity="1"><g transform="translate(95.634546, 17.92276)"><g><path d="M 4.46875 0.171875 C 3.445312 0.171875 2.6875 -0.0976562 2.1875 -0.640625 C 1.6875 -1.179688 1.4375 -1.972656 1.4375 -3.015625 L 1.4375 -9.0625 L 2.78125 -9.0625 L 2.78125 -3.046875 C 2.78125 -1.679688 3.425781 -1 4.71875 -1 C 5.53125 -1 6.175781 -1.265625 6.65625 -1.796875 C 7.132812 -2.335938 7.375 -3.207031 7.375 -4.40625 L 7.375 -9.0625 L 8.703125 -9.0625 L 8.703125 0 L 7.453125 0 L 7.453125 -1.421875 L 7.265625 -1.46875 C 6.960938 -0.90625 6.59375 -0.488281 6.15625 -0.21875 C 5.71875 0.0390625 5.15625 0.171875 4.46875 0.171875 Z M 4.46875 0.171875 "/></g></g></g><g fill="#000000" fill-opacity="1"><g transform="translate(105.92011, 17.92276)"><g><path d="M 1.578125 0 L 1.578125 -9.0625 L 2.84375 -9.0625 L 2.84375 -7.640625 L 3.015625 -7.59375 C 3.441406 -8.625 4.238281 -9.140625 5.40625 -9.140625 C 6.019531 -9.140625 6.476562 -9.023438 6.78125 -8.796875 L 6.4375 -7.671875 L 6.28125 -7.640625 C 5.9375 -7.804688 5.5625 -7.890625 5.15625 -7.890625 C 4.4375 -7.890625 3.882812 -7.617188 3.5 -7.078125 C 3.113281 -6.535156 2.921875 -5.65625 2.921875 -4.4375 L 2.921875 0 Z M 1.578125 0 "/></g></g></g><g fill="#000000" fill-opacity="1"><g transform="translate(112.913961, 17.92276)"><g/></g></g><g fill="#000000" fill-opacity="1"><g transform="translate(117.034751, 17.92276)"><g><path d="M 6.3125 0.171875 C 5.300781 0.171875 4.410156 -0.0546875 3.640625 -0.515625 C 2.878906 -0.972656 2.28125 -1.664062 1.84375 -2.59375 C 1.414062 -3.519531 1.203125 -4.65625 1.203125 -6 C 1.203125 -7.34375 1.429688 -8.476562 1.890625 -9.40625 C 2.347656 -10.332031 2.988281 -11.023438 3.8125 -11.484375 C 4.632812 -11.941406 5.582031 -12.171875 6.65625 -12.171875 C 7.800781 -12.171875 8.742188 -11.960938 9.484375 -11.546875 C 10.222656 -11.140625 10.75 -10.523438 11.0625 -9.703125 L 10.140625 -9.15625 L 9.9375 -9.15625 C 9.625 -9.78125 9.203125 -10.226562 8.671875 -10.5 C 8.140625 -10.769531 7.46875 -10.90625 6.65625 -10.90625 C 4.019531 -10.90625 2.703125 -9.269531 2.703125 -6 C 2.703125 -4.300781 3.035156 -3.054688 3.703125 -2.265625 C 4.367188 -1.484375 5.296875 -1.09375 6.484375 -1.09375 C 7.578125 -1.09375 8.394531 -1.34375 8.9375 -1.84375 C 9.488281 -2.34375 9.765625 -3.128906 9.765625 -4.203125 L 9.765625 -5.265625 L 6.34375 -5.265625 L 6.34375 -6.390625 L 11.125 -6.390625 L 11.125 0 L 9.828125 0 L 9.828125 -1.609375 L 9.65625 -1.65625 C 9.332031 -1.03125 8.890625 -0.566406 8.328125 -0.265625 C 7.765625 0.0234375 7.09375 0.171875 6.3125 0.171875 Z M 6.3125 0.171875 "/></g></g></g><g fill="#000000" fill-opacity="1"><g transform="translate(129.512043, 17.92276)"><g><path d="M 1.578125 0 L 1.578125 -9.0625 L 2.84375 -9.0625 L 2.84375 -7.640625 L 3.015625 -7.59375 C 3.441406 -8.625 4.238281 -9.140625 5.40625 -9.140625 C 6.019531 -9.140625 6.476562 -9.023438 6.78125 -8.796875 L 6.4375 -7.671875 L 6.28125 -7.640625 C 5.9375 -7.804688 5.5625 -7.890625 5.15625 -7.890625 C 4.4375 -7.890625 3.882812 -7.617188 3.5 -7.078125 C 3.113281 -6.535156 2.921875 -5.65625 2.921875 -4.4375 L 2.921875 0 Z M 1.578125 0 "/></g></g></g><g fill="#000000" fill-opacity="1"><g transform="translate(136.267823, 17.92276)"><g><path d="M 5.203125 0.171875 C 4.347656 0.171875 3.601562 -0.00390625 2.96875 -0.359375 C 2.332031 -0.722656 1.84375 -1.253906 1.5 -1.953125 C 1.164062 -2.660156 1 -3.515625 1 -4.515625 C 1 -5.523438 1.164062 -6.378906 1.5 -7.078125 C 1.84375 -7.785156 2.332031 -8.320312 2.96875 -8.6875 C 3.601562 -9.050781 4.347656 -9.234375 5.203125 -9.234375 C 6.054688 -9.234375 6.796875 -9.050781 7.421875 -8.6875 C 8.054688 -8.320312 8.546875 -7.785156 8.890625 -7.078125 C 9.234375 -6.378906 9.40625 -5.523438 9.40625 -4.515625 C 9.40625 -3.515625 9.234375 -2.660156 8.890625 -1.953125 C 8.546875 -1.253906 8.054688 -0.722656 7.421875 -0.359375 C 6.796875 -0.00390625 6.054688 0.171875 5.203125 0.171875 Z M 5.203125 -1.03125 C 6.097656 -1.03125 6.785156 -1.3125 7.265625 -1.875 C 7.742188 -2.445312 7.984375 -3.328125 7.984375 -4.515625 C 7.984375 -5.722656 7.742188 -6.609375 7.265625 -7.171875 C 6.785156 -7.742188 6.097656 -8.03125 5.203125 -8.03125 C 4.296875 -8.03125 3.597656 -7.742188 3.109375 -7.171875 C 2.628906 -6.597656 2.390625 -5.710938 2.390625 -4.515625 C 2.390625 -3.328125 2.628906 -2.445312 3.109375 -1.875 C 3.597656 -1.3125 4.296875 -1.03125 5.203125 -1.03125 Z M 5.203125 -1.03125 "/></g></g></g><g fill="#000000" fill-opacity="1"><g transform="translate(146.594424, 17.92276)"><g><path d="M 4.484375 0 L 2.796875 0 L 0.578125 -9.0625 L 1.90625 -9.0625 L 3.625 -1.5625 L 3.796875 -1.5625 L 5.90625 -9.0625 L 7.3125 -9.0625 L 9.484375 -1.5625 L 9.65625 -1.5625 L 11.34375 -9.0625 L 12.625 -9.0625 L 10.421875 0 L 8.71875 0 L 6.65625 -7.03125 L 6.484375 -7.03125 Z M 4.484375 0 "/></g></g></g><g fill="#000000" fill-opacity="1"><g transform="translate(159.900806, 17.92276)"><g><path d="M 6.125 -1.4375 L 6.546875 -0.46875 C 6.335938 -0.257812 6.054688 -0.101562 5.703125 0 C 5.359375 0.113281 4.984375 0.171875 4.578125 0.171875 C 2.847656 0.171875 1.984375 -0.703125 1.984375 -2.453125 L 1.984375 -7.96875 L 0.40625 -7.96875 L 0.40625 -9.0625 L 1.984375 -9.0625 L 1.984375 -10.96875 L 3.328125 -11.203125 L 3.328125 -9.0625 L 6.234375 -9.0625 L 6.234375 -7.96875 L 3.328125 -7.96875 L 3.328125 -2.578125 C 3.328125 -1.546875 3.773438 -1.03125 4.671875 -1.03125 C 5.171875 -1.03125 5.597656 -1.164062 5.953125 -1.4375 Z M 6.125 -1.4375 "/></g></g></g><g fill="#000000" fill-opacity="1"><g transform="translate(166.796152, 17.92276)"><g><path d="M 1.578125 0 L 1.578125 -12.6875 L 2.921875 -12.6875 L 2.921875 -7.765625 L 3.09375 -7.734375 C 3.738281 -8.734375 4.671875 -9.234375 5.890625 -9.234375 C 6.972656 -9.234375 7.757812 -8.953125 8.25 -8.390625 C 8.738281 -7.835938 8.984375 -6.984375 8.984375 -5.828125 L 8.984375 0 L 7.65625 0 L 7.65625 -5.796875 C 7.65625 -6.335938 7.582031 -6.773438 7.4375 -7.109375 C 7.300781 -7.441406 7.085938 -7.679688 6.796875 -7.828125 C 6.503906 -7.984375 6.117188 -8.0625 5.640625 -8.0625 C 4.816406 -8.0625 4.15625 -7.796875 3.65625 -7.265625 C 3.164062 -6.734375 2.921875 -5.859375 2.921875 -4.640625 L 2.921875 0 Z M 1.578125 0 "/></g></g></g><g fill="#000000" fill-opacity="1"><g transform="translate(177.221258, 17.92276)"><g><path d="M 2.203125 0.078125 C 1.890625 0.078125 1.644531 -0.00390625 1.46875 -0.171875 C 1.289062 -0.347656 1.203125 -0.582031 1.203125 -0.875 C 1.203125 -1.164062 1.289062 -1.398438 1.46875 -1.578125 C 1.644531 -1.765625 1.890625 -1.859375 2.203125 -1.859375 C 2.523438 -1.859375 2.773438 -1.769531 2.953125 -1.59375 C 3.128906 -1.414062 3.21875 -1.179688 3.21875 -0.890625 C 3.21875 -0.597656 3.125 -0.363281 2.9375 -0.1875 C 2.757812 -0.0078125 2.515625 0.078125 2.203125 0.078125 Z M 2.203125 0.078125 "/></g></g></g><g fill="#000000" fill-opacity="1"><g transform="translate(181.645778, 17.92276)"><g><path d="M 2.203125 0.078125 C 1.890625 0.078125 1.644531 -0.00390625 1.46875 -0.171875 C 1.289062 -0.347656 1.203125 -0.582031 1.203125 -0.875 C 1.203125 -1.164062 1.289062 -1.398438 1.46875 -1.578125 C 1.644531 -1.765625 1.890625 -1.859375 2.203125 -1.859375 C 2.523438 -1.859375 2.773438 -1.769531 2.953125 -1.59375 C 3.128906 -1.414062 3.21875 -1.179688 3.21875 -0.890625 C 3.21875 -0.597656 3.125 -0.363281 2.9375 -0.1875 C 2.757812 -0.0078125 2.515625 0.078125 2.203125 0.078125 Z M 2.203125 0.078125 "/></g></g></g><g fill="#000000" fill-opacity="1"><g transform="translate(186.070297, 17.92276)"><g><path d="M 2.203125 0.078125 C 1.890625 0.078125 1.644531 -0.00390625 1.46875 -0.171875 C 1.289062 -0.347656 1.203125 -0.582031 1.203125 -0.875 C 1.203125 -1.164062 1.289062 -1.398438 1.46875 -1.578125 C 1.644531 -1.765625 1.890625 -1.859375 2.203125 -1.859375 C 2.523438 -1.859375 2.773438 -1.769531 2.953125 -1.59375 C 3.128906 -1.414062 3.21875 -1.179688 3.21875 -0.890625 C 3.21875 -0.597656 3.125 -0.363281 2.9375 -0.1875 C 2.757812 -0.0078125 2.515625 0.078125 2.203125 0.078125 Z M 2.203125 0.078125 "/></g></g></g></g></g></g></g></svg>